<svg version="1.1" id="mscgenjsreplaceme" class="mscgenjsreplaceme" xmlns="http://www.w3.org/2000/svg" width="1272" height="1987.3" style="font-family:Helvetica,sans-serif;font-size:12px;font-weight:400;font-style:normal;text-decoration:none;background-color:#fff;stroke:#000;stroke-width:2"><defs><marker orient="auto" id="mscgenjsreplacemecallback-#0000FF" class="arrow-marker" viewBox="0 0 10 10" refX="9" refY="3" markerUnits="strokeWidth" markerWidth="10" markerHeight="10"><path d="m1 1 8 2-8 2" class="arrow-style" style="stroke-dasharray:100,1;stroke:#00f"/></marker><marker orient="auto" id="mscgenjsreplacemecallback-l-#0000FF" class="arrow-marker" viewBox="0 0 10 10" refX="9" refY="3" markerUnits="strokeWidth" markerWidth="10" markerHeight="10"><path d="M17 1 9 3l8 2" class="arrow-style" style="stroke-dasharray:100,1;stroke:#00f"/></marker><marker orient="auto" id="mscgenjsreplacemecallback-#008800" class="arrow-marker" viewBox="0 0 10 10" refX="9" refY="3" markerUnits="strokeWidth" markerWidth="10" markerHeight="10"><path d="m1 1 8 2-8 2" class="arrow-style" style="stroke-dasharray:100,1;stroke:#080"/></marker><marker orient="auto" id="mscgenjsreplacemecallback-l-#008800" class="arrow-marker" viewBox="0 0 10 10" refX="9" refY="3" markerUnits="strokeWidth" markerWidth="10" markerHeight="10"><path d="M17 1 9 3l8 2" class="arrow-style" style="stroke-dasharray:100,1;stroke:#080"/></marker><marker orient="auto" id="mscgenjsreplacemecallback-#FF0000" class="arrow-marker" viewBox="0 0 10 10" refX="9" refY="3" markerUnits="strokeWidth" markerWidth="10" markerHeight="10"><path d="m1 1 8 2-8 2" class="arrow-style" style="stroke-dasharray:100,1;stroke:red"/></marker><marker orient="auto" id="mscgenjsreplacemecallback-l-#FF0000" class="arrow-marker" viewBox="0 0 10 10" refX="9" refY="3" markerUnits="strokeWidth" markerWidth="10" markerHeight="10"><path d="M17 1 9 3l8 2" class="arrow-style" style="stroke-dasharray:100,1;stroke:red"/></marker><marker orient="auto" id="mscgenjsreplacememethod-#0000FF" class="arrow-marker" viewBox="0 0 10 10" refX="9" refY="3" markerUnits="strokeWidth" markerWidth="10" markerHeight="10"><path class="arrow-style" stroke="#00F" fill="#00F" d="m1 1 8 2-8 2z"/></marker><marker orient="auto" id="mscgenjsreplacememethod-l-#0000FF" class="arrow-marker" viewBox="0 0 10 10" refX="9" refY="3" markerUnits="strokeWidth" markerWidth="10" markerHeight="10"><path class="arrow-style" stroke="#00F" fill="#00F" d="M17 1 9 3l8 2z"/></marker><marker orient="auto" id="mscgenjsreplacememethod-#FF0000" class="arrow-marker" viewBox="0 0 10 10" refX="9" refY="3" markerUnits="strokeWidth" markerWidth="10" markerHeight="10"><path class="arrow-style" stroke="red" fill="red" d="m1 1 8 2-8 2z"/></marker><marker orient="auto" id="mscgenjsreplacememethod-l-#FF0000" class="arrow-marker" viewBox="0 0 10 10" refX="9" refY="3" markerUnits="strokeWidth" markerWidth="10" markerHeight="10"><path class="arrow-style" stroke="red" fill="red" d="M17 1 9 3l8 2z"/></marker><style>.mscgenjsreplaceme path,.mscgenjsreplaceme rect{fill:none}.mscgenjsreplaceme .label-text-background{fill:#fff;stroke:#fff;stroke-width:0}.mscgenjsreplaceme .return{stroke-dasharray:5,3}.mscgenjsreplaceme .inline_expression_divider{stroke-dasharray:10,5}.mscgenjsreplaceme text{color:inherit;stroke:none;text-anchor:middle}.mscgenjsreplaceme text.anchor-start{text-anchor:start}.mscgenjsreplaceme .arrow-marker{overflow:visible}.mscgenjsreplaceme .arrow-style{stroke-width:1}.mscgenjsreplaceme .arcrow{stroke-linecap:butt}.mscgenjsreplaceme .box,.mscgenjsreplaceme .entity{fill:#fff;stroke-linejoin:round}</style></defs><g id="mscgenjsreplaceme_body" transform="translate(51 3)"><path class="bglayer" style="fill:#fff;stroke:#fff;stroke-width:0" d="M-51-3h1272v1987.3H-51z" id="mscgenjsreplaceme_background"/><g id="mscgenjsreplaceme_arcspans"><path class="box inline_expression alt" d="M-41 642.06h1044V1962.3H-41z"/><path class="box inline_expression alt" d="M-37 1334.18H999v590.12H-37z"/></g><g id="mscgenjsreplaceme_lifelines"><path class="arcrow" style="stroke:transparent" d="M65 38v38"/><path class="arcrow" style="stroke:#080" d="M273 38v38"/><path class="arcrow" style="stroke:red" d="M481 38v38"/><path class="arcrow" style="stroke:#00f" d="M689 38v38"/><path class="arcrow" style="stroke:transparent" d="M897 38v38M1105 38v38M65 76v38"/><path class="arcrow" style="stroke:#080" d="M273 76v38"/><path class="arcrow" style="stroke:red" d="M481 76v38"/><path class="arcrow" style="stroke:#00f" d="M689 76v38"/><path class="arcrow" style="stroke:transparent" d="M897 76v38M1105 76v38M65 114v38"/><path class="arcrow" style="stroke:#080" d="M273 114v38"/><path class="arcrow" style="stroke:red" d="M481 114v38"/><path class="arcrow" style="stroke:#00f" d="M689 114v38"/><path class="arcrow" style="stroke:transparent" d="M897 114v38M1105 114v38M65 152v38"/><path class="arcrow" style="stroke:#080" d="M273 152v38"/><path class="arcrow" style="stroke:red" d="M481 152v38"/><path class="arcrow" style="stroke:#00f" d="M689 152v38"/><path class="arcrow" style="stroke:transparent" d="M897 152v38M1105 152v38M65 190v38"/><path class="arcrow" style="stroke:#080" d="M273 190v38"/><path class="arcrow" style="stroke:red" d="M481 190v38"/><path class="arcrow" style="stroke:#00f" d="M689 190v38"/><path class="arcrow" style="stroke:transparent" d="M897 190v38M1105 190v38M65 228v38"/><path class="arcrow" style="stroke:#080" d="M273 228v38"/><path class="arcrow" style="stroke:red" d="M481 228v38"/><path class="arcrow" style="stroke:#00f" d="M689 228v38"/><path class="arcrow" style="stroke:transparent" d="M897 228v38M1105 228v38M65 266v54"/><path class="arcrow" style="stroke:#080" d="M273 266v54"/><path class="arcrow" style="stroke:red" d="M481 266v54"/><path class="arcrow" style="stroke:#00f" d="M689 266v54"/><path class="arcrow" style="stroke:transparent" d="M897 266v54M1105 266v54M65 320v38"/><path class="arcrow" style="stroke:#080" d="M273 320v38"/><path class="arcrow" style="stroke:red" d="M481 320v38"/><path class="arcrow" style="stroke:#00f" d="M689 320v38"/><path class="arcrow" style="stroke:transparent" d="M897 320v38M1105 320v38M65 358v38"/><path class="arcrow" style="stroke:#080" d="M273 358v38"/><path class="arcrow" style="stroke:red" d="M481 358v38"/><path class="arcrow" style="stroke:#00f" d="M689 358v38"/><path class="arcrow" style="stroke:transparent" d="M897 358v38M1105 358v38M65 396v38"/><path class="arcrow" style="stroke:#080" d="M273 396v38"/><path class="arcrow" style="stroke:red" d="M481 396v38"/><path class="arcrow" style="stroke:#00f" d="M689 396v38"/><path class="arcrow" style="stroke:transparent" d="M897 396v38M1105 396v38M65 434v38"/><path class="arcrow" style="stroke:#080" d="M273 434v38"/><path class="arcrow" style="stroke:red" d="M481 434v38"/><path class="arcrow" style="stroke:#00f" d="M689 434v38"/><path class="arcrow" style="stroke:transparent" d="M897 434v38M1105 434v38M65 472v38"/><path class="arcrow" style="stroke:#080" d="M273 472v38"/><path class="arcrow" style="stroke:red" d="M481 472v38"/><path class="arcrow" style="stroke:#00f" d="M689 472v38"/><path class="arcrow" style="stroke:transparent" d="M897 472v38M1105 472v38M65 510v75.06"/><path class="arcrow" style="stroke:#080" d="M273 510v75.06"/><path class="arcrow" style="stroke:red" d="M481 510v75.06"/><path class="arcrow" style="stroke:#00f" d="M689 510v75.06"/><path class="arcrow" style="stroke:transparent" d="M897 510v75.06M1105 510v75.06M65 585.06v38"/><path class="arcrow" style="stroke:#080" d="M273 585.06v38"/><path class="arcrow" style="stroke:red" d="M481 585.06v38"/><path class="arcrow" style="stroke:#00f" d="M689 585.06v38"/><path class="arcrow" style="stroke:transparent" d="M897 585.06v38M1105 585.06v38M65 623.06v38"/><path class="arcrow" style="stroke:#080" d="M273 623.06v38"/><path class="arcrow" style="stroke:red" d="M481 623.06v38"/><path class="arcrow" style="stroke:#00f" d="M689 623.06v38"/><path class="arcrow" style="stroke:transparent" d="M897 623.06v38M1105 623.06v38M65 661.06v38"/><path class="arcrow" style="stroke:#080" d="M273 661.06v38"/><path class="arcrow" style="stroke:red" d="M481 661.06v38"/><path class="arcrow" style="stroke:#00f" d="M689 661.06v38"/><path class="arcrow" style="stroke:transparent" d="M897 661.06v38M1105 661.06v38M65 699.06v75.06"/><path class="arcrow" style="stroke:#080" d="M273 699.06v75.06"/><path class="arcrow" style="stroke:red" d="M481 699.06v75.06"/><path class="arcrow" style="stroke:#00f" d="M689 699.06v75.06"/><path class="arcrow" style="stroke:transparent" d="M897 699.06v75.06M1105 699.06v75.06M65 774.12v38"/><path class="arcrow" style="stroke:#080" d="M273 774.12v38"/><path class="arcrow" style="stroke:red" d="M481 774.12v38"/><path class="arcrow" style="stroke:#00f" d="M689 774.12v38"/><path class="arcrow" style="stroke:transparent" d="M897 774.12v38M1105 774.12v38M65 812.12v86"/><path class="arcrow" style="stroke:#080" d="M273 812.12v86"/><path class="arcrow" style="stroke:red" d="M481 812.12v86"/><path class="arcrow" style="stroke:#00f" d="M689 812.12v86"/><path class="arcrow" style="stroke:transparent" d="M897 812.12v86M1105 812.12v86M65 898.12v38"/><path class="arcrow" style="stroke:#080" d="M273 898.12v38"/><path class="arcrow" style="stroke:red" d="M481 898.12v38"/><path class="arcrow" style="stroke:#00f" d="M689 898.12v38"/><path class="arcrow" style="stroke:transparent" d="M897 898.12v38M1105 898.12v38M65 936.12v38"/><path class="arcrow" style="stroke:#080" d="M273 936.12v38"/><path class="arcrow" style="stroke:red" d="M481 936.12v38"/><path class="arcrow" style="stroke:#00f" d="M689 936.12v38"/><path class="arcrow" style="stroke:transparent" d="M897 936.12v38M1105 936.12v38M65 974.12v38"/><path class="arcrow" style="stroke:#080" d="M273 974.12v38"/><path class="arcrow" style="stroke:red" d="M481 974.12v38"/><path class="arcrow" style="stroke:#00f" d="M689 974.12v38"/><path class="arcrow" style="stroke:transparent" d="M897 974.12v38M1105 974.12v38M65 1012.12v38"/><path class="arcrow" style="stroke:#080" d="M273 1012.12v38"/><path class="arcrow" style="stroke:red" d="M481 1012.12v38"/><path class="arcrow" style="stroke:#00f" d="M689 1012.12v38"/><path class="arcrow" style="stroke:transparent" d="M897 1012.12v38M1105 1012.12v38M65 1050.12v38"/><path class="arcrow" style="stroke:#080" d="M273 1050.12v38"/><path class="arcrow" style="stroke:red" d="M481 1050.12v38"/><path class="arcrow" style="stroke:#00f" d="M689 1050.12v38"/><path class="arcrow" style="stroke:transparent" d="M897 1050.12v38M1105 1050.12v38M65 1088.12v38"/><path class="arcrow" style="stroke:#080" d="M273 1088.12v38"/><path class="arcrow" style="stroke:red" d="M481 1088.12v38"/><path class="arcrow" style="stroke:#00f" d="M689 1088.12v38"/><path class="arcrow" style="stroke:transparent" d="M897 1088.12v38M1105 1088.12v38M65 1126.12v75.06"/><path class="arcrow" style="stroke:#080" d="M273 1126.12v75.06"/><path class="arcrow" style="stroke:red" d="M481 1126.12v75.06"/><path class="arcrow" style="stroke:#00f" d="M689 1126.12v75.06"/><path class="arcrow" style="stroke:transparent" d="M897 1126.12v75.06M1105 1126.12v75.06M65 1201.18v38"/><path class="arcrow" style="stroke:#080" d="M273 1201.18v38"/><path class="arcrow" style="stroke:red" d="M481 1201.18v38"/><path class="arcrow" style="stroke:#00f" d="M689 1201.18v38"/><path class="arcrow" style="stroke:transparent" d="M897 1201.18v38M1105 1201.18v38M65 1239.18v38"/><path class="arcrow" style="stroke:#080" d="M273 1239.18v38"/><path class="arcrow" style="stroke:red" d="M481 1239.18v38"/><path class="arcrow" style="stroke:#00f" d="M689 1239.18v38"/><path class="arcrow" style="stroke:transparent" d="M897 1239.18v38M1105 1239.18v38M65 1277.18v38"/><path class="arcrow" style="stroke:#080" d="M273 1277.18v38"/><path class="arcrow" style="stroke:red" d="M481 1277.18v38"/><path class="arcrow" style="stroke:#00f" d="M689 1277.18v38"/><path class="arcrow" style="stroke:transparent" d="M897 1277.18v38M1105 1277.18v38M65 1315.18v38"/><path class="arcrow" style="stroke:#080" d="M273 1315.18v38"/><path class="arcrow" style="stroke:red" d="M481 1315.18v38"/><path class="arcrow" style="stroke:#00f" d="M689 1315.18v38"/><path class="arcrow" style="stroke:transparent" d="M897 1315.18v38M1105 1315.18v38M65 1353.18v38"/><path class="arcrow" style="stroke:#080" d="M273 1353.18v38"/><path class="arcrow" style="stroke:red" d="M481 1353.18v38"/><path class="arcrow" style="stroke:#00f" d="M689 1353.18v38"/><path class="arcrow" style="stroke:transparent" d="M897 1353.18v38M1105 1353.18v38M65 1391.18v59.06"/><path class="arcrow" style="stroke:#080" d="M273 1391.18v59.06"/><path class="arcrow" style="stroke:red" d="M481 1391.18v59.06"/><path class="arcrow" style="stroke:#00f" d="M689 1391.18v59.06"/><path class="arcrow" style="stroke:transparent" d="M897 1391.18v59.06M1105 1391.18v59.06M65 1450.24v54"/><path class="arcrow" style="stroke:#080" d="M273 1450.24v54"/><path class="arcrow" style="stroke:red" d="M481 1450.24v54"/><path class="arcrow" style="stroke:#00f" d="M689 1450.24v54"/><path class="arcrow" style="stroke:transparent" d="M897 1450.24v54M1105 1450.24v54M65 1504.24v38"/><path class="arcrow" style="stroke:#080" d="M273 1504.24v38"/><path class="arcrow" style="stroke:red" d="M481 1504.24v38"/><path class="arcrow" style="stroke:#00f" d="M689 1504.24v38"/><path class="arcrow" style="stroke:transparent" d="M897 1504.24v38M1105 1504.24v38M65 1542.24v38"/><path class="arcrow" style="stroke:#080" d="M273 1542.24v38"/><path class="arcrow" style="stroke:red" d="M481 1542.24v38"/><path class="arcrow" style="stroke:#00f" d="M689 1542.24v38"/><path class="arcrow" style="stroke:transparent" d="M897 1542.24v38M1105 1542.24v38M65 1580.24v38"/><path class="arcrow" style="stroke:#080" d="M273 1580.24v38"/><path class="arcrow" style="stroke:red" d="M481 1580.24v38"/><path class="arcrow" style="stroke:#00f" d="M689 1580.24v38"/><path class="arcrow" style="stroke:transparent" d="M897 1580.24v38M1105 1580.24v38M65 1618.24v38"/><path class="arcrow" style="stroke:#080" d="M273 1618.24v38"/><path class="arcrow" style="stroke:red" d="M481 1618.24v38"/><path class="arcrow" style="stroke:#00f" d="M689 1618.24v38"/><path class="arcrow" style="stroke:transparent" d="M897 1618.24v38M1105 1618.24v38M65 1656.24v38"/><path class="arcrow" style="stroke:#080" d="M273 1656.24v38"/><path class="arcrow" style="stroke:red" d="M481 1656.24v38"/><path class="arcrow" style="stroke:#00f" d="M689 1656.24v38"/><path class="arcrow" style="stroke:transparent" d="M897 1656.24v38M1105 1656.24v38M65 1694.24v38"/><path class="arcrow" style="stroke:#080" d="M273 1694.24v38"/><path class="arcrow" style="stroke:red" d="M481 1694.24v38"/><path class="arcrow" style="stroke:#00f" d="M689 1694.24v38"/><path class="arcrow" style="stroke:transparent" d="M897 1694.24v38M1105 1694.24v38M65 1732.24v38"/><path class="arcrow" style="stroke:#080" d="M273 1732.24v38"/><path class="arcrow" style="stroke:red" d="M481 1732.24v38"/><path class="arcrow" style="stroke:#00f" d="M689 1732.24v38"/><path class="arcrow" style="stroke:transparent" d="M897 1732.24v38M1105 1732.24v38M65 1770.24v59.06"/><path class="arcrow" style="stroke:#080" d="M273 1770.24v59.06"/><path class="arcrow" style="stroke:red" d="M481 1770.24v59.06"/><path class="arcrow" style="stroke:#00f" d="M689 1770.24v59.06"/><path class="arcrow" style="stroke:transparent" d="M897 1770.24v59.06M1105 1770.24v59.06M65 1829.3v38"/><path class="arcrow" style="stroke:#080" d="M273 1829.3v38"/><path class="arcrow" style="stroke:red" d="M481 1829.3v38"/><path class="arcrow" style="stroke:#00f" d="M689 1829.3v38"/><path class="arcrow" style="stroke:transparent" d="M897 1829.3v38M1105 1829.3v38M65 1867.3v38"/><path class="arcrow" style="stroke:#080" d="M273 1867.3v38"/><path class="arcrow" style="stroke:red" d="M481 1867.3v38"/><path class="arcrow" style="stroke:#00f" d="M689 1867.3v38"/><path class="arcrow" style="stroke:transparent" d="M897 1867.3v38M1105 1867.3v38M65 1905.3v38"/><path class="arcrow" style="stroke:#080" d="M273 1905.3v38"/><path class="arcrow" style="stroke:red" d="M481 1905.3v38"/><path class="arcrow" style="stroke:#00f" d="M689 1905.3v38"/><path class="arcrow" style="stroke:transparent" d="M897 1905.3v38M1105 1905.3v38M65 1943.3v38"/><path class="arcrow" style="stroke:#080" d="M273 1943.3v38"/><path class="arcrow" style="stroke:red" d="M481 1943.3v38"/><path class="arcrow" style="stroke:#00f" d="M689 1943.3v38"/><path class="arcrow" style="stroke:transparent" d="M897 1943.3v38M1105 1943.3v38"/></g><g id="mscgenjsreplaceme_sequence"><path class="entity" style="stroke:transparent" d="M0 0h130v38H0z"/><text x="65" y="22.75" class="entity-text"><tspan> </tspan></text><path class="entity" style="fill:#cfc;stroke:#080" d="M208 0h130v38H208z"/><text x="273" y="22.75" class="entity-text"><tspan>Network</tspan></text><path class="entity" style="fill:#fcc;stroke:red" d="M416 0h130v38H416z"/><text x="481" y="22.75" class="entity-text"><tspan>Offerer</tspan></text><path class="entity" style="fill:#ccf;stroke:#00f" d="M624 0h130v38H624z"/><text x="689" y="22.75" class="entity-text"><tspan>Bidder</tspan></text><path class="entity" style="stroke:transparent" d="M832 0h130v38H832z"/><text x="897" y="22.75" class="entity-text"><tspan> </tspan></text><path class="entity" style="stroke:transparent" d="M1040 0h130v38h-130z"/><text x="1105" y="22.75" class="entity-text"><tspan> </tspan></text><path class="arc directional callback" style="stroke:red" marker-end="url(#mscgenjsreplacemecallback-#FF0000)" d="M481 95H273"/><path class="label-text-background" d="M345.08 79.25h63.84v14h-63.84z"/><text x="377" y="90.25" class="directional-text callback-text"><tspan>Sends Offer</tspan></text><path class="arc directional return" style="stroke:#080" marker-end="url(#mscgenjsreplacemecallback-#008800)" d="M273 133h416"/><path class="label-text-background" d="M445.75 117.25h70.5v14h-70.5z"/><text x="481" y="128.25" class="directional-text return-text"><tspan>Detects Offer</tspan></text><path class="arc directional callback" style="stroke:#00f" marker-end="url(#mscgenjsreplacemecallback-#0000FF)" d="M689 171H481"/><path class="label-text-background" d="M557.64 155.25h54.72v14h-54.72z"/><text x="585" y="166.25" class="directional-text callback-text"><tspan>Sends Bid</tspan></text><path class="arc directional callback" style="stroke:red" marker-end="url(#mscgenjsreplacemecallback-#FF0000)" d="M481 293h208"/><path class="label-text-background" d="M513.28 277.25h143.77v14H513.28z"/><text x="585" y="288.25" class="directional-text callback-text"><tspan>Sends BidAccept message</tspan></text><path class="arc directional callback" style="stroke:#00f" marker-end="url(#mscgenjsreplacemecallback-#0000FF)" d="M689 415H481"/><path class="label-text-background" d="M491.28 399.25h187.77v14H491.28z"/><text x="585" y="410.25" class="directional-text callback-text"><tspan>Sends XmrBidLockTxSigsMessage</tspan></text><path class="arc directional callback" style="stroke:red" marker-end="url(#mscgenjsreplacemecallback-#FF0000)" d="M481 453h208"/><path class="label-text-background" d="M485.61 437.25h199.11v14H485.61z"/><text x="585" y="448.25" class="directional-text callback-text"><tspan>Sends XmrBidLockSpendTxMessage</tspan></text><path class="arc directional callback" style="stroke:red" marker-end="url(#mscgenjsreplacemecallback-#FF0000)" d="M481 491H273"/><path class="label-text-background" d="M311.64 475.25h130.72v14H311.64z"/><text x="377" y="486.25" class="directional-text callback-text"><tspan>Sends script-coin-lock-tx</tspan></text><path d="M689 539.93c104 .1 104 22.8 0 22.8" class="arc directional method" style="stroke:#00f" marker-end="url(#mscgenjsreplacememethod-#0000FF)"/><path class="label-text-background" d="M692 491.67h40.91v14.02H692z"/><text x="692" y="502.68" class="directional-text method-text anchor-start"><tspan>Wait for</tspan></text><path class="label-text-background" d="M692 507.67h107.02v14.02H692z"/><text x="692" y="518.68" class="directional-text method-text anchor-start"><tspan>script-coin-lock-tx to</tspan></text><path class="label-text-background" d="M692 523.67h39.34v14.02H692z"/><text x="692" y="534.68" class="directional-text method-text anchor-start"><tspan>confirm</tspan></text><path class="arc directional callback" style="stroke:#00f" marker-end="url(#mscgenjsreplacemecallback-#0000FF)" d="M689 680.06H273"/><path class="label-text-background" d="M408.97 664.3h144.06v14.02H408.97z"/><text x="481" y="675.31" class="directional-text callback-text"><tspan>Sends noscript-coin-lock-tx</tspan></text><path d="M689 728.99c104 .1 104 22.8 0 22.8" class="arc directional method" style="stroke:#00f" marker-end="url(#mscgenjsreplacememethod-#0000FF)"/><path class="label-text-background" d="M692 680.73h40.91v14.02H692z"/><text x="692" y="691.74" class="directional-text method-text anchor-start"><tspan>Wait for</tspan></text><path class="label-text-background" d="M692 696.73h120.38v14.02H692z"/><text x="692" y="707.74" class="directional-text method-text anchor-start"><tspan>noscript-coin-lock-tx to</tspan></text><path class="label-text-background" d="M692 712.73h39.34v14.02H692z"/><text x="692" y="723.74" class="directional-text method-text anchor-start"><tspan>confirm</tspan></text><path d="M481 728.99c104 .1 104 22.8 0 22.8" class="arc directional method" style="stroke:red" marker-end="url(#mscgenjsreplacememethod-#FF0000)"/><path class="label-text-background" d="M484 680.73h40.91v14.02H484z"/><text x="484" y="691.74" class="directional-text method-text anchor-start"><tspan>Wait for</tspan></text><path class="label-text-background" d="M484 696.73h120.38v14.02H484z"/><text x="484" y="707.74" class="directional-text method-text anchor-start"><tspan>noscript-coin-lock-tx to</tspan></text><path class="label-text-background" d="M484 712.73h39.34v14.02H484z"/><text x="484" y="723.74" class="directional-text method-text anchor-start"><tspan>confirm</tspan></text><path class="arc directional method" style="stroke:red" marker-end="url(#mscgenjsreplacememethod-#FF0000)" d="M481 855.12h208"/><path class="label-text-background" d="M519.64 839.36h130.72v14.02H519.64z"/><text x="585" y="850.37" class="directional-text method-text"><tspan>Sends script-coin-lock-tx</tspan></text><path class="label-text-background" d="M539.3 857.36h91.73v14.02H539.3z"/><text x="585" y="868.37" class="directional-text method-text"><tspan>release message</tspan></text><path class="arc directional callback" style="stroke:#00f" marker-end="url(#mscgenjsreplacemecallback-#0000FF)" d="M689 955.12H273"/><path class="label-text-background" d="M397.3 939.36h167.41v14.02H397.3z"/><text x="481" y="950.37" class="directional-text callback-text"><tspan>Sends script-coin-lock-spend-tx</tspan></text><path class="inline_expression_divider" d="M-41 1069.12h1044"/><path class="label-text-background" d="M459.98 1061.86h42.03v14.02h-42.03z"/><text x="481" y="1072.87" class="empty-text comment-row-text"><tspan>fail path</tspan></text><path d="M689 1156.05c104 .1 104 22.8 0 22.8" class="arc directional method" style="stroke:#00f" marker-end="url(#mscgenjsreplacememethod-#0000FF)"/><path class="label-text-background" d="M692 1107.8h40.91v14.02H692z"/><text x="692" y="1118.8" class="directional-text method-text anchor-start"><tspan>Wait for</tspan></text><path class="label-text-background" d="M692 1123.8h131.69v14.02H692z"/><text x="692" y="1134.8" class="directional-text method-text anchor-start"><tspan>script-coin-lock-tx lock to</tspan></text><path class="label-text-background" d="M692 1139.8h33.02v14.02H692z"/><text x="692" y="1150.8" class="directional-text method-text anchor-start"><tspan>expire</tspan></text><path class="arc directional callback" style="stroke:red" marker-end="url(#mscgenjsreplacemecallback-#FF0000)" d="M481 1220.18H273"/><path class="label-text-background" d="M359.98 1204.42h34.03v14.02h-34.03z"/><text x="377" y="1215.43" class="directional-text callback-text"><tspan>Sends</tspan></text><path class="label-text-background" d="M300.64 1222.42h152.72v14.02H300.64z"/><text x="377" y="1233.43" class="directional-text callback-text"><tspan>script-coin-lock-pre-refund-tx</tspan></text><path class="arc directional return" style="stroke:#080" marker-end="url(#mscgenjsreplacemecallback-#008800)" d="M273 1258.18h208"/><path class="label-text-background" d="M300.64 1242.42h152.72v14.02H300.64z"/><text x="377" y="1253.43" class="directional-text return-text"><tspan>script-coin-lock-pre-refund-tx</tspan></text><path d="M481 1413.11c104 .1 104 22.8 0 22.8" class="arc directional method" style="stroke:red" marker-end="url(#mscgenjsreplacememethod-#FF0000)"/><path class="label-text-background" d="M484 1380.86h40.91v14.02H484z"/><text x="484" y="1391.86" class="directional-text method-text anchor-start"><tspan>Wait for</tspan></text><path class="label-text-background" d="M484 1396.86h124.06v14.02H484z"/><text x="484" y="1407.86" class="directional-text method-text anchor-start"><tspan>pre-refund tx to confirm</tspan></text><path class="arc directional callback" style="stroke:red" marker-end="url(#mscgenjsreplacemecallback-#FF0000)" d="M481 1477.24H273"/><path class="label-text-background" d="M359.98 1461.48h34.03v14.02h-34.03z"/><text x="377" y="1472.49" class="directional-text callback-text"><tspan>Sends</tspan></text><path class="label-text-background" d="M282.3 1479.48h189.41v14.02H282.3z"/><text x="377" y="1490.49" class="directional-text callback-text"><tspan>script-coin-lock-pre-refund-spend-tx</tspan></text><path class="arc directional return" style="stroke:#080" marker-end="url(#mscgenjsreplacemecallback-#008800)" d="M273 1561.24h416"/><path class="label-text-background" d="M364.28 1545.48h233.44v14.02H364.28z"/><text x="481" y="1556.49" class="directional-text return-text"><tspan>Detects script-coin-lock-pre-refund-spend-tx</tspan></text><path class="arc directional callback" style="stroke:#00f" marker-end="url(#mscgenjsreplacemecallback-#0000FF)" d="M689 1599.24H273"/><path class="label-text-background" d="M382.97 1583.48h196.06v14.02H382.97z"/><text x="481" y="1594.49" class="directional-text callback-text"><tspan>Sends scriptless-coin-lock-recover-tx</tspan></text><path class="inline_expression_divider" d="M-37 1713.24H999"/><path class="label-text-background" d="M396.95 1705.98h168.09V1720H396.95z"/><text x="481" y="1716.99" class="empty-text comment-row-text"><tspan>bidder swipes script coin lock tx</tspan></text><path d="M689 1792.17c104 .1 104 22.8 0 22.8" class="arc directional method" style="stroke:#00f" marker-end="url(#mscgenjsreplacememethod-#0000FF)"/><path class="label-text-background" d="M692 1759.91h40.91v14.02H692z"/><text x="692" y="1770.92" class="directional-text method-text anchor-start"><tspan>Wait for</tspan></text><path class="label-text-background" d="M692 1775.91h142.41v14.02H692z"/><text x="692" y="1786.92" class="directional-text method-text anchor-start"><tspan>pre-refund tx lock to expire</tspan></text><path class="arc directional callback" style="stroke:#00f" marker-end="url(#mscgenjsreplacemecallback-#0000FF)" d="M689 1848.3H273"/><path class="label-text-background" d="M368.63 1832.55h224.75v14.02H368.63z"/><text x="481" y="1843.55" class="directional-text callback-text"><tspan>Sends script-coin-lock-pre-refund-swipe-tx</tspan></text></g><g id="mscgenjsreplaceme_notes"><path d="m591 209 3-17h190l3 17-3 17H594z" class="box abox" style="stroke:#00f"/><text x="689" y="212.75" class="box-text abox-text"><tspan>Bid Sent</tspan></text><path class="box" style="stroke:red" d="M383 230h196v34H383z"/><text x="481" y="250.75" class="box-text"><tspan>User accepts bid</tspan></text><path d="M799 268h395v9h9m-9-9 9 9v41H799v-50z" class="box note" style="fill:#ffc"/><text x="1001" y="280.75" class="box-text note-text"><tspan>The BidAccept message contains the pubkeys the offerer will use and</tspan></text><text x="1001" y="296.75" class="box-text note-text"><tspan>a DLEAG proof one key will work across both chains of the swapping</tspan></text><text x="1001" y="312.75" class="box-text note-text"><tspan>coins</tspan></text><path d="m591 339 3-17h190l3 17-3 17H594z" class="box abox" style="stroke:#00f"/><text x="689" y="342.75" class="box-text abox-text"><tspan>Bid Receiving accept</tspan></text><path d="m591 377 3-17h190l3 17-3 17H594z" class="box abox" style="stroke:#00f"/><text x="689" y="380.75" class="box-text abox-text"><tspan>Bid Accepted</tspan></text><path d="M799 398h395v9h9m-9-9 9 9v25H799v-34z" class="box note" style="fill:#ffc"/><text x="1001" y="410.75" class="box-text note-text"><tspan>The XmrBidLockTxSigsMessage contains the bidder&apos;s signatures for the</tspan></text><text x="1001" y="426.75" class="box-text note-text"><tspan>script-coin-lock-refund and script-coin-lock-refund-spend txns.</tspan></text><path d="M799 436h395v9h9m-9-9 9 9v25H799v-34z" class="box note" style="fill:#ffc"/><text x="1001" y="448.75" class="box-text note-text"><tspan>The XmrBidLockSpendTxMessage contains the script-coin-lock-tx and</tspan></text><text x="1001" y="464.75" class="box-text note-text"><tspan>the offerer&apos;s signature for it.</tspan></text><path d="m591 491 3-17h190l3 17-3 17H594z" class="box abox" style="stroke:#00f"/><text x="689" y="494.75" class="box-text abox-text"><tspan>Bid Script coin spend tx valid</tspan></text><path d="m591 604.06 3-17h190l3 17-3 17H594z" class="box abox" style="stroke:#00f"/><text x="689" y="607.81" class="box-text abox-text"><tspan>Bid Script coin locked</tspan></text><path d="M-40 642.06h98.39v11.02l-7 7H-40" class="box inline_expression_label"/><text x="-38" y="655.31" class="inline_expression-text alt-text anchor-start"><tspan>alt: success path</tspan></text><path d="m591 793.12 3-17h190l3 17-3 17H594z" class="box abox" style="stroke:#00f"/><text x="689" y="796.87" class="box-text abox-text"><tspan>Bid Scriptless coin locked</tspan></text><path d="M799 814.11h395v9h9m-9-9 9 9v73.02H799v-82.02z" class="box note" style="fill:#ffc"/><text x="1001" y="826.87" class="box-text note-text"><tspan>The XmrBidLockReleaseMessage contains the offerer&apos;s OTVES for it.   </tspan></text><text x="1001" y="842.87" class="box-text note-text"><tspan>                         The bidder decodes the offerer&apos;s signature</tspan></text><text x="1001" y="858.87" class="box-text note-text"><tspan>from the OTVES.                             When the offerer has the</tspan></text><text x="1001" y="874.87" class="box-text note-text"><tspan>plaintext signature, they can decode the bidder&apos;s noscript-coin-lock-tx</tspan></text><text x="1001" y="890.87" class="box-text note-text"><tspan>signature.</tspan></text><path d="m591 917.12 3-17h190l3 17-3 17H594z" class="box abox" style="stroke:#00f"/><text x="689" y="920.87" class="box-text abox-text"><tspan>Script coin lock released</tspan></text><path d="m591 993.12 3-17h190l3 17-3 17H594z" class="box abox" style="stroke:#00f"/><text x="689" y="996.87" class="box-text abox-text"><tspan>Script tx redeemed</tspan></text><path d="m591 1031.12 3-17h190l3 17-3 17H594z" class="box abox" style="stroke:#00f"/><text x="689" y="1034.87" class="box-text abox-text"><tspan>Bid Completed</tspan></text><path d="M799 1203.18h395v9h9m-9-9 9 9v25H799v-34z" class="box note" style="fill:#ffc"/><text x="1001" y="1223.93" class="box-text note-text"><tspan>tx can be sent by either party.</tspan></text><path d="m591 1296.18 3-17.01h190l3 17.01-3 17.01H594z" class="box abox" style="stroke:#00f"/><text x="689" y="1291.93" class="box-text abox-text"><tspan>Bid Script pre-refund tx in</tspan></text><text x="689" y="1307.93" class="box-text abox-text"><tspan>chain</tspan></text><path d="M-36 1334.18h200.86v11.02l-7 7H-36" class="box inline_expression_label"/><text x="-34" y="1347.43" class="inline_expression-text alt-text anchor-start"><tspan>alt: offerer refunds script coin lock tx</tspan></text><path d="M799 1452.23h395v9h9m-9-9 9 9v41.02H799v-50.02z" class="box note" style="fill:#ffc"/><text x="1001" y="1464.99" class="box-text note-text"><tspan>Refunds the script lock tx, with the offerer&apos;s cleartext signature</tspan></text><text x="1001" y="1480.99" class="box-text note-text"><tspan>the bidder can refund the noscript lock tx.                        </tspan></text><text x="1001" y="1496.99" class="box-text note-text"><tspan>Once the lock expires the pre-refund tx can be spent by the bidder.</tspan></text><path d="m383 1523.24 3-17h190l3 17-3 17H386z" class="box abox" style="stroke:red"/><text x="481" y="1526.99" class="box-text abox-text"><tspan>Bid Failed, refunded</tspan></text><path d="M799 1544.24h395v9h9m-9-9 9 9v25H799v-34z" class="box note" style="fill:#ffc"/><text x="1001" y="1564.99" class="box-text note-text"><tspan>Bidder recovers the offerer&apos;s scriptless chain key-shard.</tspan></text><path d="m591 1637.24 3-17h190l3 17-3 17H594z" class="box abox" style="stroke:#00f"/><text x="689" y="1640.99" class="box-text abox-text"><tspan>Bid Scriptless tx recovered</tspan></text><path d="m591 1675.24 3-17h190l3 17-3 17H594z" class="box abox" style="stroke:#00f"/><text x="689" y="1678.99" class="box-text abox-text"><tspan>Bid Failed, refunded</tspan></text><path d="m591 1886.3 3-17h190l3 17-3 17H594z" class="box abox" style="stroke:#00f"/><text x="689" y="1890.05" class="box-text abox-text"><tspan>Bid Failed, swiped</tspan></text></g></g></svg>