<svg width="289" height="289" viewBox="0 0 289 289" fill="none" xmlns="http://www.w3.org/2000/svg">
<mask id="mask0_1384_22144" style="mask-type:alpha" maskUnits="userSpaceOnUse" x="0" y="0" width="289" height="289">
<circle cx="144.5" cy="144.5" r="142.507" fill="#C4C4C4" stroke="#F8BB54" stroke-width="3.98621"/>
</mask>
<g mask="url(#mask0_1384_22144)">
<path d="M-83.9766 60.6005C-83.9766 60.6005 -16.689 48.136 0.672082 4.51091C17.2756 -37.3086 85.6704 -48.5495 85.6704 -48.5495" stroke="#A855F7" stroke-width="4.48062" stroke-miterlimit="10"/>
<path d="M-83.9766 81.5681C-83.9766 81.5681 -1.42521 67.182 19.8389 14.529C40.1127 -35.736 123.946 -48.5495 123.946 -48.5495" stroke="#A855F7" stroke-width="4.48062" stroke-miterlimit="10"/>
<path d="M-83.9766 102.595C-83.9766 102.595 13.7801 86.2279 38.9475 24.6636C62.9497 -34.2214 162.221 -48.5495 162.221 -48.5495" stroke="#A855F7" stroke-width="4.48062" stroke-miterlimit="10"/>
<path d="M-83.9766 123.563C-83.9766 123.563 29.0437 105.274 58.1143 34.6817C85.7869 -32.6488 200.497 -48.5495 200.497 -48.5495" stroke="#A855F7" stroke-width="4.48062" stroke-miterlimit="10"/>
<path d="M-83.9766 144.531C-83.9766 144.531 44.3072 124.32 77.2812 44.7578C108.624 -31.0762 238.714 -48.5495 238.714 -48.5495" stroke="#A855F7" stroke-width="4.48062" stroke-miterlimit="10"/>
<path d="M-83.9766 165.557C-83.9766 165.557 59.5125 143.424 96.3898 54.8339C131.519 -29.562 276.989 -48.5495 276.989 -48.5495" stroke="#A855F7" stroke-width="4.48062" stroke-miterlimit="10"/>
<path d="M-83.9766 186.525C-83.9766 186.525 74.7761 162.411 115.557 64.9105C154.356 -27.9894 315.265 -48.5495 315.265 -48.5495" stroke="#A855F7" stroke-width="4.48062" stroke-miterlimit="10"/>
<path d="M-83.9766 207.493C-83.9766 207.493 90.0398 181.457 134.665 74.9286C177.193 -26.4168 353.54 -48.5495 353.54 -48.5495" stroke="#A855F7" stroke-width="4.48062" stroke-miterlimit="10"/>
<path d="M-83.9766 228.519C-83.9766 228.519 105.245 200.562 153.832 85.0628C200.031 -24.9026 391.758 -48.5495 391.758 -48.5495" stroke="#A855F7" stroke-width="4.48062" stroke-miterlimit="10"/>
<path d="M-83.9766 249.485C-83.9766 249.485 120.509 219.608 172.941 95.1393C222.868 -23.33 430.033 -48.5495 430.033 -48.5495" stroke="#A855F7" stroke-width="4.48062" stroke-miterlimit="10"/>
<path d="M-83.9766 270.512C-83.9766 270.512 135.772 238.653 192.108 105.215C245.705 -21.7574 468.308 -48.5495 468.308 -48.5495" stroke="#A855F7" stroke-width="4.48062" stroke-miterlimit="10"/>
<path d="M-83.9766 291.482C-83.9766 291.482 150.977 257.7 211.216 115.292C268.542 -20.2428 506.583 -48.5495 506.583 -48.5495" stroke="#A855F7" stroke-width="4.48062" stroke-miterlimit="10"/>
<path d="M-83.9766 312.447C-83.9766 312.447 166.241 276.746 230.383 125.31C291.379 -18.6701 544.858 -48.5495 544.858 -48.5495" stroke="#A855F7" stroke-width="4.48062" stroke-miterlimit="10"/>
<path d="M-83.9766 333.473C-83.9766 333.473 181.505 295.792 249.55 135.444C314.216 -17.0975 583.076 -48.5495 583.076 -48.5495" stroke="#A855F7" stroke-width="4.48062" stroke-miterlimit="10"/>
<path d="M-83.9766 354.443C-83.9766 354.443 196.71 314.837 268.658 145.462C337.053 -15.5833 621.352 -48.5495 621.352 -48.5495" stroke="#A855F7" stroke-width="4.48062" stroke-miterlimit="10"/>
<path d="M-83.9766 375.413C-83.9766 375.413 211.974 333.883 287.825 155.538C359.89 -14.0107 659.627 -48.5495 659.627 -48.5495" stroke="#A855F7" stroke-width="4.48062" stroke-miterlimit="10"/>
<path d="M-83.9766 396.439C-83.9766 396.439 227.237 352.986 306.934 165.615C382.727 -12.4381 697.902 -48.5495 697.902 -48.5495" stroke="#A855F7" stroke-width="4.48062" stroke-miterlimit="10"/>
<path d="M-83.9766 417.405C-83.9766 417.405 242.442 371.975 326.101 175.691C405.565 -10.9239 736.121 -48.5495 736.121 -48.5495" stroke="#A855F7" stroke-width="4.48062" stroke-miterlimit="10"/>
</g>
</svg>
