<svg width="79" height="48" viewBox="0 0 79 48" fill="none" xmlns="http://www.w3.org/2000/svg">
<g clip-path="url(#clip0_2892_21290)">
<path d="M77.5993 48C78.3729 48 79 47.3759 79 46.6061C79 45.8362 78.3729 45.2122 77.5993 45.2122C76.8256 45.2122 76.1985 45.8362 76.1985 46.6061C76.1985 47.3759 76.8256 48 77.5993 48Z" fill="#F48B7C"/>
<path d="M64.8969 48C65.6705 48 66.2976 47.3759 66.2976 46.6061C66.2976 45.8362 65.6705 45.2122 64.8969 45.2122C64.1232 45.2122 63.4961 45.8362 63.4961 46.6061C63.4961 47.3759 64.1232 48 64.8969 48Z" fill="#F48B7C"/>
<path d="M52.1997 48C52.478 48.0011 52.7504 47.9199 52.9823 47.7668C53.2143 47.6137 53.3953 47.3955 53.5026 47.1399C53.6098 46.8844 53.6384 46.6029 53.5848 46.3311C53.5311 46.0594 53.3976 45.8096 53.2012 45.6134C53.0048 45.4172 52.7542 45.2834 52.4813 45.2289C52.2084 45.1745 51.9255 45.2019 51.6682 45.3077C51.411 45.4134 51.1911 45.5928 51.0363 45.823C50.8816 46.0532 50.799 46.3239 50.799 46.6008C50.7989 46.971 50.9464 47.3261 51.2089 47.5883C51.4715 47.8506 51.8277 47.9986 52.1997 48Z" fill="#F48B7C"/>
<path d="M39.5026 48C39.7807 48 40.0526 47.918 40.2838 47.7642C40.5151 47.6105 40.6952 47.392 40.8017 47.1363C40.9081 46.8806 40.9359 46.5993 40.8816 46.3279C40.8274 46.0565 40.6935 45.8072 40.4969 45.6115C40.3002 45.4158 40.0497 45.2825 39.7769 45.2285C39.5042 45.1746 39.2215 45.2023 38.9645 45.3082C38.7076 45.4141 38.4881 45.5934 38.3335 45.8235C38.179 46.0536 38.0966 46.3241 38.0966 46.6008C38.0966 46.7846 38.1329 46.9666 38.2036 47.1363C38.2742 47.3061 38.3778 47.4603 38.5084 47.5902C38.6389 47.7201 38.7939 47.8232 38.9645 47.8936C39.1351 47.9639 39.318 48 39.5026 48Z" fill="#F48B7C"/>
<path d="M26.8003 48C27.5739 48 28.2011 47.3759 28.2011 46.6061C28.2011 45.8362 27.5739 45.2122 26.8003 45.2122C26.0267 45.2122 25.3995 45.8362 25.3995 46.6061C25.3995 47.3759 26.0267 48 26.8003 48Z" fill="#F48B7C"/>
<path d="M14.6392 47.834C15.3547 47.5412 15.6962 46.7267 15.4021 46.0147C15.1079 45.3027 14.2894 44.9629 13.5739 45.2556C12.8584 45.5483 12.5168 46.3628 12.811 47.0748C13.1052 47.7868 13.9237 48.1267 14.6392 47.834Z" fill="#F48B7C"/>
<path d="M1.40609 45.228C1.12755 45.227 0.855001 45.3083 0.622963 45.4616C0.390924 45.615 0.209877 45.8335 0.102797 46.0893C-0.00428191 46.3452 -0.0325729 46.627 0.0215115 46.8989C0.0755958 47.1708 0.209606 47.4206 0.406567 47.6166C0.603529 47.8126 0.854533 47.9459 1.12778 47.9998C1.40102 48.0536 1.68421 48.0254 1.94135 47.9189C2.19849 47.8123 2.41804 47.6322 2.57214 47.4013C2.72624 47.1704 2.80792 46.8991 2.80687 46.622C2.80547 46.2527 2.65745 45.8989 2.39506 45.6378C2.13267 45.3767 1.77717 45.2294 1.40609 45.228Z" fill="#F48B7C"/>
<path d="M77.5993 36.6956C78.3729 36.6956 79 36.0716 79 35.3017C79 34.5319 78.3729 33.9078 77.5993 33.9078C76.8256 33.9078 76.1985 34.5319 76.1985 35.3017C76.1985 36.0716 76.8256 36.6956 77.5993 36.6956Z" fill="#F48B7C"/>
<path d="M64.8969 36.6956C65.6705 36.6956 66.2976 36.0716 66.2976 35.3017C66.2976 34.5319 65.6705 33.9078 64.8969 33.9078C64.1232 33.9078 63.4961 34.5319 63.4961 35.3017C63.4961 36.0716 64.1232 36.6956 64.8969 36.6956Z" fill="#F48B7C"/>
<path d="M52.1997 36.6957C52.4783 36.6967 52.7509 36.6154 52.9829 36.462C53.215 36.3087 53.396 36.0902 53.5031 35.8343C53.6102 35.5785 53.6385 35.2967 53.5844 35.0248C53.5303 34.7529 53.3963 34.5031 53.1993 34.3071C53.0024 34.1111 52.7513 33.9777 52.478 33.9239C52.2048 33.8701 51.9217 33.8982 51.6645 34.0048C51.4074 34.1114 51.1878 34.2915 51.0337 34.5224C50.8797 34.7533 50.7979 35.0246 50.799 35.3017C50.8004 35.671 50.9484 36.0247 51.2108 36.2858C51.4732 36.5469 51.8287 36.6943 52.1997 36.6957Z" fill="#F48B7C"/>
<path d="M39.5027 36.6957C39.781 36.6957 40.053 36.6135 40.2844 36.4595C40.5157 36.3055 40.6959 36.0866 40.8022 35.8307C40.9085 35.5747 40.936 35.2931 40.8813 35.0215C40.8266 34.75 40.6922 34.5007 40.495 34.3052C40.2978 34.1097 40.0467 33.9769 39.7736 33.9235C39.5005 33.8701 39.2177 33.8986 38.9609 34.0053C38.704 34.112 38.4848 34.2922 38.331 34.523C38.1771 34.7538 38.0955 35.0248 38.0966 35.3017C38.0966 35.4852 38.133 35.6669 38.2037 35.8364C38.2744 36.0058 38.3781 36.1597 38.5087 36.2893C38.6393 36.4188 38.7944 36.5213 38.9649 36.5911C39.1355 36.6608 39.3183 36.6964 39.5027 36.6957Z" fill="#F48B7C"/>
<path d="M26.8003 36.6956C27.5739 36.6956 28.2011 36.0716 28.2011 35.3017C28.2011 34.5319 27.5739 33.9078 26.8003 33.9078C26.0267 33.9078 25.3995 34.5319 25.3995 35.3017C25.3995 36.0716 26.0267 36.6956 26.8003 36.6956Z" fill="#F48B7C"/>
<path d="M14.6405 36.5336C15.356 36.2409 15.6976 35.4264 15.4034 34.7144C15.1092 34.0024 14.2907 33.6625 13.5752 33.9552C12.8597 34.248 12.5181 35.0625 12.8123 35.7745C13.1065 36.4865 13.925 36.8264 14.6405 36.5336Z" fill="#F48B7C"/>
<path d="M1.40609 36.6957C1.68441 36.6957 1.95646 36.6135 2.1878 36.4595C2.41914 36.3055 2.59937 36.0866 2.70563 35.8307C2.8119 35.5747 2.83947 35.2931 2.78478 35.0215C2.7301 34.75 2.5956 34.5007 2.39843 34.3052C2.20126 34.1097 1.95026 33.9769 1.67716 33.9235C1.40406 33.8701 1.12119 33.8986 0.864361 34.0053C0.607529 34.112 0.388273 34.2922 0.234411 34.523C0.0805501 34.7538 -0.00104025 35.0248 1.00134e-05 35.3017C8.6905e-06 35.4852 0.0364124 35.6669 0.107139 35.8364C0.177866 36.0058 0.281568 36.1597 0.412204 36.2893C0.54284 36.4188 0.69788 36.5213 0.868442 36.5911C1.039 36.6608 1.2217 36.6964 1.40609 36.6957Z" fill="#F48B7C"/>
<path d="M77.5993 25.3913C78.3729 25.3913 79 24.7672 79 23.9974C79 23.2275 78.3729 22.6035 77.5993 22.6035C76.8256 22.6035 76.1985 23.2275 76.1985 23.9974C76.1985 24.7672 76.8256 25.3913 77.5993 25.3913Z" fill="#F48B7C"/>
<path d="M64.8969 25.3913C65.6705 25.3913 66.2976 24.7672 66.2976 23.9974C66.2976 23.2275 65.6705 22.6035 64.8969 22.6035C64.1232 22.6035 63.4961 23.2275 63.4961 23.9974C63.4961 24.7672 64.1232 25.3913 64.8969 25.3913Z" fill="#F48B7C"/>
<path d="M52.1997 25.3966C52.478 25.3976 52.7504 25.3165 52.9823 25.1634C53.2143 25.0103 53.3953 24.7921 53.5026 24.5365C53.6098 24.2809 53.6384 23.9994 53.5848 23.7277C53.5311 23.4559 53.3976 23.2061 53.2012 23.0099C53.0048 22.8137 52.7542 22.6799 52.4813 22.6255C52.2084 22.5711 51.9255 22.5985 51.6682 22.7042C51.411 22.81 51.1911 22.9893 51.0363 23.2195C50.8816 23.4497 50.799 23.7204 50.799 23.9974C50.7989 24.3676 50.9464 24.7226 51.2089 24.9849C51.4715 25.2471 51.8277 25.3952 52.1997 25.3966Z" fill="#F48B7C"/>
<path d="M39.5026 25.3966C39.7807 25.3966 40.0526 25.3145 40.2838 25.1608C40.5151 25.007 40.6952 24.7885 40.8017 24.5328C40.9081 24.2772 40.9359 23.9958 40.8816 23.7244C40.8274 23.453 40.6935 23.2037 40.4969 23.008C40.3002 22.8123 40.0497 22.6791 39.7769 22.6251C39.5042 22.5711 39.2215 22.5988 38.9645 22.7047C38.7076 22.8106 38.4881 22.99 38.3335 23.22C38.179 23.4501 38.0966 23.7206 38.0966 23.9974C38.0966 24.1811 38.1329 24.3631 38.2036 24.5328C38.2742 24.7026 38.3778 24.8568 38.5084 24.9868C38.6389 25.1167 38.7939 25.2198 38.9645 25.2901C39.1351 25.3604 39.318 25.3966 39.5026 25.3966Z" fill="#F48B7C"/>
<path d="M26.8003 25.3913C27.5739 25.3913 28.2011 24.7672 28.2011 23.9974C28.2011 23.2275 27.5739 22.6035 26.8003 22.6035C26.0267 22.6035 25.3995 23.2275 25.3995 23.9974C25.3995 24.7672 26.0267 25.3913 26.8003 25.3913Z" fill="#F48B7C"/>
<path d="M14.6397 25.2337C15.3552 24.9409 15.6967 24.1264 15.4025 23.4144C15.1084 22.7024 14.2899 22.3626 13.5744 22.6553C12.8588 22.948 12.5173 23.7625 12.8115 24.4745C13.1056 25.1865 13.9242 25.5264 14.6397 25.2337Z" fill="#F48B7C"/>
<path d="M1.40608 25.3966C1.68418 25.3966 1.95604 25.3145 2.18727 25.1608C2.4185 25.007 2.59868 24.7885 2.70511 24.5328C2.81153 24.2772 2.83941 23.9958 2.78516 23.7244C2.73091 23.453 2.59701 23.2037 2.40036 23.008C2.20372 22.8123 1.95314 22.6791 1.68038 22.6251C1.40763 22.5711 1.12497 22.5988 0.868043 22.7047C0.611117 22.8106 0.391493 22.99 0.236992 23.22C0.0824911 23.4501 0 23.7206 0 23.9974C0 24.3685 0.148181 24.7244 0.41187 24.9868C0.67556 25.2492 1.03317 25.3966 1.40608 25.3966Z" fill="#F48B7C"/>
<path d="M77.5993 14.0922C78.3729 14.0922 79 13.4681 79 12.6983C79 11.9285 78.3729 11.3044 77.5993 11.3044C76.8256 11.3044 76.1985 11.9285 76.1985 12.6983C76.1985 13.4681 76.8256 14.0922 77.5993 14.0922Z" fill="#F48B7C"/>
<path d="M64.8969 14.0922C65.6705 14.0922 66.2976 13.4681 66.2976 12.6983C66.2976 11.9285 65.6705 11.3044 64.8969 11.3044C64.1232 11.3044 63.4961 11.9285 63.4961 12.6983C63.4961 13.4681 64.1232 14.0922 64.8969 14.0922Z" fill="#F48B7C"/>
<path d="M52.1997 14.0763C52.4783 14.0774 52.7509 13.9961 52.9829 13.8427C53.215 13.6894 53.396 13.4709 53.5031 13.215C53.6102 12.9591 53.6385 12.6774 53.5844 12.4055C53.5303 12.1336 53.3963 11.8838 53.1993 11.6878C53.0024 11.4918 52.7513 11.3584 52.478 11.3046C52.2048 11.2508 51.9217 11.2789 51.6645 11.3855C51.4074 11.492 51.1878 11.6722 51.0337 11.9031C50.8797 12.134 50.7979 12.4052 50.799 12.6824C50.8004 13.0517 50.9484 13.4054 51.2108 13.6665C51.4732 13.9276 51.8287 14.0749 52.1997 14.0763Z" fill="#F48B7C"/>
<path d="M39.5027 14.0763C39.781 14.0763 40.053 13.9941 40.2844 13.8401C40.5157 13.6862 40.6959 13.4674 40.8022 13.2114C40.9085 12.9554 40.936 12.6738 40.8813 12.4022C40.8266 12.1307 40.6922 11.8814 40.495 11.6859C40.2978 11.4904 40.0467 11.3576 39.7736 11.3042C39.5005 11.2508 39.2177 11.2793 38.9609 11.386C38.704 11.4927 38.4848 11.6728 38.331 11.9036C38.1771 12.1344 38.0955 12.4055 38.0966 12.6824C38.0966 12.8659 38.133 13.0476 38.2037 13.2171C38.2744 13.3865 38.3781 13.5404 38.5087 13.6699C38.6393 13.7994 38.7944 13.902 38.9649 13.9718C39.1355 14.0415 39.3183 14.077 39.5027 14.0763Z" fill="#F48B7C"/>
<path d="M26.8003 14.0922C27.5739 14.0922 28.2011 13.4681 28.2011 12.6983C28.2011 11.9285 27.5739 11.3044 26.8003 11.3044C26.0267 11.3044 25.3995 11.9285 25.3995 12.6983C25.3995 13.4681 26.0267 14.0922 26.8003 14.0922Z" fill="#F48B7C"/>
<path d="M14.641 13.9333C15.3565 13.6406 15.6981 12.826 15.4039 12.114C15.1097 11.402 14.2912 11.0622 13.5757 11.3549C12.8602 11.6476 12.5186 12.4621 12.8128 13.1741C13.107 13.8862 13.9255 14.226 14.641 13.9333Z" fill="#F48B7C"/>
<path d="M1.40609 14.0763C1.68441 14.0763 1.95646 13.9941 2.1878 13.8401C2.41914 13.6862 2.59937 13.4674 2.70563 13.2114C2.8119 12.9554 2.83947 12.6738 2.78478 12.4022C2.7301 12.1307 2.5956 11.8814 2.39843 11.6859C2.20126 11.4904 1.95026 11.3576 1.67716 11.3042C1.40406 11.2508 1.12119 11.2793 0.864361 11.386C0.607529 11.4927 0.388273 11.6728 0.234411 11.9036C0.0805501 12.1344 -0.00104025 12.4055 1.00134e-05 12.6824C8.6905e-06 12.8659 0.0364124 13.0476 0.107139 13.2171C0.177866 13.3865 0.281568 13.5404 0.412204 13.6699C0.54284 13.7994 0.69788 13.902 0.868442 13.9718C1.039 14.0415 1.2217 14.077 1.40609 14.0763Z" fill="#F48B7C"/>
<path d="M77.5993 2.78781C78.3729 2.78781 79 2.16374 79 1.39391C79 0.624073 78.3729 0 77.5993 0C76.8256 0 76.1985 0.624073 76.1985 1.39391C76.1985 2.16374 76.8256 2.78781 77.5993 2.78781Z" fill="#F48B7C"/>
<path d="M64.8969 2.78781C65.6705 2.78781 66.2976 2.16374 66.2976 1.39391C66.2976 0.624073 65.6705 0 64.8969 0C64.1232 0 63.4961 0.624073 63.4961 1.39391C63.4961 2.16374 64.1232 2.78781 64.8969 2.78781Z" fill="#F48B7C"/>
<path d="M52.1997 2.79313C52.478 2.79417 52.7504 2.71301 52.9823 2.55991C53.2143 2.4068 53.3953 2.18861 53.5026 1.93304C53.6098 1.67747 53.6384 1.39599 53.5848 1.12423C53.5311 0.852464 53.3976 0.60266 53.2012 0.406451C53.0048 0.210243 52.7542 0.0764418 52.4813 0.0220246C52.2084 -0.0323926 51.9255 -0.00499087 51.6682 0.100753C51.411 0.206497 51.1911 0.385843 51.0363 0.616051C50.8816 0.846259 50.799 1.11697 50.799 1.39393C50.7989 1.7641 50.9464 2.11919 51.2089 2.38144C51.4715 2.64368 51.8277 2.79173 52.1997 2.79313Z" fill="#F48B7C"/>
<path d="M39.5026 2.79312C39.7807 2.79312 40.0526 2.71107 40.2838 2.55732C40.5151 2.40358 40.6952 2.18506 40.8017 1.9294C40.9081 1.67373 40.9359 1.39238 40.8816 1.12097C40.8274 0.849553 40.6935 0.600226 40.4969 0.404546C40.3002 0.208867 40.0497 0.0756221 39.7769 0.0216342C39.5042 -0.0323537 39.2215 -0.00463587 38.9645 0.101265C38.7076 0.207166 38.4881 0.3865 38.3335 0.616595C38.179 0.84669 38.0966 1.11719 38.0966 1.39392C38.0966 1.57767 38.1329 1.75964 38.2036 1.9294C38.2742 2.09915 38.3778 2.25338 38.5084 2.3833C38.6389 2.51323 38.7939 2.6163 38.9645 2.68662C39.1351 2.75693 39.318 2.79312 39.5026 2.79312Z" fill="#F48B7C"/>
<path d="M26.8003 2.78781C27.5739 2.78781 28.2011 2.16374 28.2011 1.39391C28.2011 0.624073 27.5739 0 26.8003 0C26.0267 0 25.3995 0.624073 25.3995 1.39391C25.3995 2.16374 26.0267 2.78781 26.8003 2.78781Z" fill="#F48B7C"/>
<path d="M14.6403 2.62809C15.3558 2.33535 15.6973 1.52084 15.4032 0.808835C15.109 0.096833 14.2905 -0.243021 13.575 0.0497186C12.8595 0.342458 12.5179 1.15694 12.8121 1.86894C13.1062 2.58095 13.9248 2.92083 14.6403 2.62809Z" fill="#F48B7C"/>
<path d="M1.40608 2.79312C1.68418 2.79312 1.95604 2.71107 2.18727 2.55732C2.4185 2.40358 2.59868 2.18506 2.70511 1.9294C2.81153 1.67373 2.83941 1.39238 2.78516 1.12097C2.73091 0.849553 2.59701 0.600226 2.40036 0.404546C2.20372 0.208867 1.95314 0.0756221 1.68038 0.0216342C1.40763 -0.0323537 1.12497 -0.00463587 0.868043 0.101265C0.611117 0.207166 0.391493 0.3865 0.236992 0.616595C0.0824911 0.84669 0 1.11719 0 1.39392C0 1.76501 0.148181 2.1209 0.41187 2.3833C0.67556 2.6457 1.03317 2.79312 1.40608 2.79312Z" fill="#F48B7C"/>
</g>
<defs>
<clipPath id="clip0_2892_21290">
<rect width="79" height="48" fill="white"/>
</clipPath>
</defs>
</svg>
