<svg width="149" height="199" viewBox="0 0 149 199" fill="none" xmlns="http://www.w3.org/2000/svg">
<g clip-path="url(#clip0_1384_22237)">
<path d="M146.249 198.91C147.707 198.91 148.889 197.728 148.889 196.27C148.889 194.812 147.707 193.63 146.249 193.63C144.791 193.63 143.609 194.812 143.609 196.27C143.609 197.728 144.791 198.91 146.249 198.91Z" fill="#3B82F6"/>
<path d="M122.31 198.91C123.768 198.91 124.95 197.728 124.95 196.27C124.95 194.812 123.768 193.63 122.31 193.63C120.852 193.63 119.67 194.812 119.67 196.27C119.67 197.728 120.852 198.91 122.31 198.91Z" fill="#3B82F6"/>
<path d="M98.3802 198.91C98.9048 198.912 99.4181 198.759 99.8552 198.469C100.292 198.179 100.634 197.765 100.836 197.281C101.038 196.797 101.092 196.264 100.991 195.75C100.889 195.235 100.638 194.762 100.268 194.39C99.8975 194.018 99.4253 193.765 98.911 193.662C98.3967 193.559 97.8633 193.611 97.3785 193.811C96.8937 194.011 96.4793 194.351 96.1876 194.787C95.896 195.223 95.7402 195.736 95.7402 196.26C95.7402 196.961 96.0181 197.634 96.5129 198.131C97.0078 198.627 97.6792 198.908 98.3802 198.91V198.91Z" fill="#3B82F6"/>
<path d="M74.4498 198.91C74.9739 198.91 75.4863 198.755 75.9221 198.464C76.3579 198.173 76.6975 197.759 76.8981 197.274C77.0986 196.79 77.1511 196.257 77.0488 195.743C76.9466 195.229 76.6942 194.757 76.3236 194.387C75.953 194.016 75.4808 193.764 74.9668 193.661C74.4527 193.559 73.9199 193.612 73.4357 193.812C72.9514 194.013 72.5376 194.352 72.2465 194.788C71.9553 195.224 71.7998 195.736 71.7998 196.26C71.7998 196.608 71.8683 196.953 72.0015 197.274C72.1346 197.596 72.3299 197.888 72.5759 198.134C72.822 198.38 73.1142 198.576 73.4357 198.709C73.7572 198.842 74.1018 198.91 74.4498 198.91V198.91Z" fill="#3B82F6"/>
<path d="M50.5101 198.91C51.9681 198.91 53.1501 197.728 53.1501 196.27C53.1501 194.812 51.9681 193.63 50.5101 193.63C49.0521 193.63 47.8701 194.812 47.8701 196.27C47.8701 197.728 49.0521 198.91 50.5101 198.91Z" fill="#3B82F6"/>
<path d="M27.5901 198.595C28.9386 198.041 29.5823 196.498 29.0279 195.15C28.4735 193.801 26.9308 193.157 25.5823 193.712C24.2338 194.266 23.5901 195.809 24.1445 197.157C24.6989 198.506 26.2416 199.15 27.5901 198.595Z" fill="#3B82F6"/>
<path d="M2.65017 193.66C2.1252 193.658 1.61153 193.812 1.17421 194.103C0.736895 194.393 0.395678 194.807 0.193868 195.291C-0.00794293 195.776 -0.0612624 196.31 0.0406694 196.825C0.142601 197.34 0.395167 197.813 0.766377 198.184C1.13759 198.555 1.61065 198.808 2.12563 198.91C2.64061 199.012 3.17433 198.958 3.65896 198.756C4.14359 198.555 4.55737 198.214 4.8478 197.776C5.13822 197.339 5.29216 196.825 5.29018 196.3C5.28755 195.601 5.00858 194.931 4.51406 194.436C4.01953 193.942 3.34953 193.663 2.65017 193.66V193.66Z" fill="#3B82F6"/>
<path d="M146.249 177.5C147.707 177.5 148.889 176.318 148.889 174.86C148.889 173.402 147.707 172.22 146.249 172.22C144.791 172.22 143.609 173.402 143.609 174.86C143.609 176.318 144.791 177.5 146.249 177.5Z" fill="#3B82F6"/>
<path d="M122.31 177.5C123.768 177.5 124.95 176.318 124.95 174.86C124.95 173.402 123.768 172.22 122.31 172.22C120.852 172.22 119.67 173.402 119.67 174.86C119.67 176.318 120.852 177.5 122.31 177.5Z" fill="#3B82F6"/>
<path d="M98.3803 177.5C98.9052 177.502 99.419 177.348 99.8563 177.058C100.294 176.767 100.635 176.354 100.837 175.869C101.038 175.384 101.092 174.851 100.99 174.336C100.888 173.821 100.635 173.348 100.264 172.976C99.893 172.605 99.4198 172.353 98.9048 172.251C98.3898 172.149 97.8562 172.202 97.3716 172.404C96.887 172.606 96.4732 172.947 96.1828 173.384C95.8923 173.821 95.7383 174.335 95.7403 174.86C95.7429 175.56 96.022 176.229 96.5165 176.724C97.011 177.219 97.6809 177.498 98.3803 177.5V177.5Z" fill="#3B82F6"/>
<path d="M74.4498 177.5C74.9744 177.5 75.4871 177.345 75.9231 177.053C76.3591 176.761 76.6988 176.347 76.8991 175.862C77.0993 175.377 77.1512 174.844 77.0481 174.329C76.9451 173.815 76.6917 173.343 76.3201 172.973C75.9485 172.603 75.4753 172.351 74.9606 172.25C74.4459 172.149 73.9128 172.203 73.4287 172.405C72.9447 172.607 72.5316 172.948 72.2416 173.385C71.9516 173.822 71.7978 174.336 71.7998 174.86C71.7998 175.208 71.8684 175.552 72.0017 175.873C72.135 176.194 72.3304 176.485 72.5766 176.73C72.8228 176.976 73.115 177.17 73.4364 177.302C73.7579 177.434 74.1023 177.502 74.4498 177.5V177.5Z" fill="#3B82F6"/>
<path d="M50.5101 177.5C51.9681 177.5 53.1501 176.318 53.1501 174.86C53.1501 173.402 51.9681 172.22 50.5101 172.22C49.0521 172.22 47.8701 173.402 47.8701 174.86C47.8701 176.318 49.0521 177.5 50.5101 177.5Z" fill="#3B82F6"/>
<path d="M27.5921 177.193C28.9406 176.639 29.5843 175.096 29.0299 173.747C28.4754 172.399 26.9328 171.755 25.5843 172.31C24.2358 172.864 23.592 174.407 24.1465 175.755C24.7009 177.104 26.2436 177.747 27.5921 177.193Z" fill="#3B82F6"/>
<path d="M2.65004 177.5C3.17459 177.5 3.68731 177.345 4.12331 177.053C4.55931 176.761 4.89899 176.347 5.09926 175.862C5.29954 175.377 5.3515 174.844 5.24843 174.329C5.14537 173.815 4.89189 173.343 4.52028 172.973C4.14867 172.603 3.67561 172.351 3.16091 172.25C2.6462 172.149 2.11309 172.203 1.62905 172.405C1.145 172.607 0.731771 172.948 0.441791 173.385C0.151812 173.822 -0.00196055 174.336 1.88721e-05 174.86C1.63788e-05 175.208 0.0686259 175.552 0.201923 175.873C0.33522 176.194 0.530667 176.485 0.776874 176.73C1.02308 176.976 1.31528 177.17 1.63674 177.302C1.95819 177.434 2.30251 177.502 2.65004 177.5Z" fill="#3B82F6"/>
<path d="M146.249 156.09C147.707 156.09 148.889 154.908 148.889 153.45C148.889 151.992 147.707 150.81 146.249 150.81C144.791 150.81 143.609 151.992 143.609 153.45C143.609 154.908 144.791 156.09 146.249 156.09Z" fill="#3B82F6"/>
<path d="M122.31 156.09C123.768 156.09 124.95 154.908 124.95 153.45C124.95 151.992 123.768 150.81 122.31 150.81C120.852 150.81 119.67 151.992 119.67 153.45C119.67 154.908 120.852 156.09 122.31 156.09Z" fill="#3B82F6"/>
<path d="M98.3802 156.1C98.9048 156.102 99.4181 155.948 99.8552 155.658C100.292 155.368 100.634 154.955 100.836 154.471C101.038 153.987 101.092 153.454 100.991 152.939C100.889 152.424 100.638 151.951 100.268 151.58C99.8975 151.208 99.4253 150.955 98.911 150.851C98.3967 150.748 97.8633 150.8 97.3785 151.001C96.8937 151.201 96.4793 151.541 96.1876 151.977C95.896 152.413 95.7402 152.925 95.7402 153.45C95.7402 154.151 96.0181 154.823 96.5129 155.32C97.0078 155.817 97.6792 156.097 98.3802 156.1V156.1Z" fill="#3B82F6"/>
<path d="M74.4498 156.1C74.9739 156.1 75.4863 155.944 75.9221 155.653C76.3579 155.362 76.6975 154.948 76.8981 154.464C77.0986 153.98 77.1511 153.447 77.0488 152.933C76.9466 152.419 76.6942 151.947 76.3236 151.576C75.953 151.205 75.4808 150.953 74.9668 150.851C74.4527 150.748 73.9199 150.801 73.4357 151.002C72.9514 151.202 72.5376 151.542 72.2465 151.978C71.9553 152.413 71.7998 152.926 71.7998 153.45C71.7998 153.798 71.8683 154.142 72.0015 154.464C72.1346 154.785 72.3299 155.078 72.5759 155.324C72.822 155.57 73.1142 155.765 73.4357 155.898C73.7572 156.031 74.1018 156.1 74.4498 156.1V156.1Z" fill="#3B82F6"/>
<path d="M50.5101 156.09C51.9681 156.09 53.1501 154.908 53.1501 153.45C53.1501 151.992 51.9681 150.81 50.5101 150.81C49.0521 150.81 47.8701 151.992 47.8701 153.45C47.8701 154.908 49.0521 156.09 50.5101 156.09Z" fill="#3B82F6"/>
<path d="M27.5911 155.791C28.9396 155.237 29.5833 153.694 29.0289 152.346C28.4744 150.997 26.9318 150.354 25.5833 150.908C24.2348 151.463 23.591 153.005 24.1455 154.354C24.6999 155.702 26.2426 156.346 27.5911 155.791Z" fill="#3B82F6"/>
<path d="M2.65002 156.1C3.17414 156.1 3.68652 155.944 4.12231 155.653C4.5581 155.362 4.89769 154.948 5.09827 154.464C5.29884 153.98 5.3514 153.447 5.24915 152.933C5.14689 152.419 4.89453 151.947 4.52393 151.576C4.15332 151.205 3.68104 150.953 3.16699 150.851C2.65294 150.748 2.12021 150.801 1.63599 151.002C1.15176 151.202 0.737841 151.542 0.446655 151.978C0.15547 152.413 0 152.926 0 153.45C0 154.153 0.279274 154.827 0.776245 155.324C1.27322 155.821 1.9472 156.1 2.65002 156.1V156.1Z" fill="#3B82F6"/>
<path d="M146.249 134.69C147.707 134.69 148.889 133.508 148.889 132.05C148.889 130.592 147.707 129.41 146.249 129.41C144.791 129.41 143.609 130.592 143.609 132.05C143.609 133.508 144.791 134.69 146.249 134.69Z" fill="#3B82F6"/>
<path d="M122.31 134.69C123.768 134.69 124.95 133.508 124.95 132.05C124.95 130.592 123.768 129.41 122.31 129.41C120.852 129.41 119.67 130.592 119.67 132.05C119.67 133.508 120.852 134.69 122.31 134.69Z" fill="#3B82F6"/>
<path d="M98.3803 134.66C98.9052 134.662 99.419 134.508 99.8563 134.218C100.294 133.927 100.635 133.514 100.837 133.029C101.038 132.544 101.092 132.011 100.99 131.496C100.888 130.981 100.635 130.508 100.264 130.137C99.893 129.765 99.4198 129.513 98.9048 129.411C98.3898 129.309 97.8562 129.362 97.3716 129.564C96.887 129.766 96.4732 130.107 96.1828 130.544C95.8923 130.982 95.7383 131.495 95.7403 132.02C95.7429 132.72 96.022 133.39 96.5165 133.884C97.011 134.379 97.6809 134.658 98.3803 134.66V134.66Z" fill="#3B82F6"/>
<path d="M74.4498 134.66C74.9744 134.66 75.4871 134.505 75.9231 134.213C76.3591 133.921 76.6988 133.507 76.8991 133.022C77.0993 132.537 77.1512 132.004 77.0481 131.49C76.9451 130.975 76.6917 130.503 76.3201 130.133C75.9485 129.763 75.4753 129.511 74.9606 129.41C74.4459 129.309 73.9128 129.363 73.4287 129.565C72.9447 129.767 72.5316 130.108 72.2416 130.545C71.9516 130.982 71.7978 131.496 71.7998 132.02C71.7998 132.368 71.8684 132.712 72.0017 133.033C72.135 133.354 72.3304 133.645 72.5766 133.891C72.8228 134.136 73.115 134.33 73.4364 134.462C73.7579 134.594 74.1023 134.662 74.4498 134.66V134.66Z" fill="#3B82F6"/>
<path d="M50.5101 134.69C51.9681 134.69 53.1501 133.508 53.1501 132.05C53.1501 130.592 51.9681 129.41 50.5101 129.41C49.0521 129.41 47.8701 130.592 47.8701 132.05C47.8701 133.508 49.0521 134.69 50.5101 134.69Z" fill="#3B82F6"/>
<path d="M27.594 134.389C28.9425 133.835 29.5863 132.292 29.0318 130.944C28.4774 129.595 26.9347 128.951 25.5862 129.506C24.2377 130.06 23.594 131.603 24.1484 132.951C24.7029 134.3 26.2455 134.944 27.594 134.389Z" fill="#3B82F6"/>
<path d="M2.65004 134.66C3.17459 134.66 3.68731 134.505 4.12331 134.213C4.55931 133.921 4.89899 133.507 5.09926 133.022C5.29954 132.537 5.3515 132.004 5.24843 131.49C5.14537 130.975 4.89189 130.503 4.52028 130.133C4.14867 129.763 3.67561 129.511 3.16091 129.41C2.6462 129.309 2.11309 129.363 1.62905 129.565C1.145 129.767 0.731771 130.108 0.441791 130.545C0.151812 130.982 -0.00196055 131.496 1.88721e-05 132.02C1.63788e-05 132.368 0.0686259 132.712 0.201923 133.033C0.33522 133.354 0.530667 133.645 0.776874 133.891C1.02308 134.136 1.31528 134.33 1.63674 134.462C1.95819 134.594 2.30251 134.662 2.65004 134.66V134.66Z" fill="#3B82F6"/>
<path d="M146.249 113.28C147.707 113.28 148.889 112.098 148.889 110.64C148.889 109.182 147.707 108 146.249 108C144.791 108 143.609 109.182 143.609 110.64C143.609 112.098 144.791 113.28 146.249 113.28Z" fill="#3B82F6"/>
<path d="M122.31 113.28C123.768 113.28 124.95 112.098 124.95 110.64C124.95 109.182 123.768 108 122.31 108C120.852 108 119.67 109.182 119.67 110.64C119.67 112.098 120.852 113.28 122.31 113.28Z" fill="#3B82F6"/>
<path d="M98.3802 113.29C98.9048 113.292 99.4181 113.139 99.8552 112.849C100.292 112.559 100.634 112.145 100.836 111.661C101.038 111.177 101.092 110.644 100.991 110.129C100.889 109.615 100.638 109.142 100.268 108.77C99.8975 108.398 99.4253 108.145 98.911 108.042C98.3967 107.939 97.8633 107.991 97.3785 108.191C96.8937 108.391 96.4793 108.731 96.1876 109.167C95.896 109.603 95.7402 110.116 95.7402 110.64C95.7402 111.341 96.0181 112.014 96.5129 112.511C97.0078 113.007 97.6792 113.288 98.3802 113.29V113.29Z" fill="#3B82F6"/>
<path d="M74.4498 113.29C74.9739 113.29 75.4863 113.135 75.9221 112.844C76.3579 112.552 76.6975 112.139 76.8981 111.654C77.0986 111.17 77.1511 110.637 77.0488 110.123C76.9466 109.609 76.6942 109.137 76.3236 108.766C75.953 108.396 75.4808 108.143 74.9668 108.041C74.4527 107.939 73.9199 107.991 73.4357 108.192C72.9514 108.393 72.5376 108.732 72.2465 109.168C71.9553 109.604 71.7998 110.116 71.7998 110.64C71.7998 110.988 71.8683 111.333 72.0015 111.654C72.1346 111.976 72.3299 112.268 72.5759 112.514C72.822 112.76 73.1142 112.955 73.4357 113.089C73.7572 113.222 74.1018 113.29 74.4498 113.29V113.29Z" fill="#3B82F6"/>
<path d="M50.5101 113.28C51.9681 113.28 53.1501 112.098 53.1501 110.64C53.1501 109.182 51.9681 108 50.5101 108C49.0521 108 47.8701 109.182 47.8701 110.64C47.8701 112.098 49.0521 113.28 50.5101 113.28Z" fill="#3B82F6"/>
<path d="M27.592 112.977C28.9406 112.423 29.5843 110.88 29.0298 109.531C28.4754 108.183 26.9328 107.539 25.5843 108.094C24.2358 108.648 23.592 110.191 24.1465 111.539C24.7009 112.888 26.2435 113.532 27.592 112.977Z" fill="#3B82F6"/>
<path d="M2.65002 113.29C3.17414 113.29 3.68652 113.135 4.12231 112.844C4.5581 112.552 4.89769 112.139 5.09827 111.654C5.29884 111.17 5.3514 110.637 5.24915 110.123C5.14689 109.609 4.89453 109.137 4.52393 108.766C4.15332 108.396 3.68104 108.143 3.16699 108.041C2.65294 107.939 2.12021 107.991 1.63599 108.192C1.15176 108.393 0.737841 108.732 0.446655 109.168C0.15547 109.604 0 110.116 0 110.64C0 111.343 0.279274 112.017 0.776245 112.514C1.27322 113.011 1.9472 113.29 2.65002 113.29V113.29Z" fill="#3B82F6"/>
</g>
<g clip-path="url(#clip1_1384_22237)">
<path d="M146.249 90.9099C147.707 90.9099 148.889 89.7279 148.889 88.2699C148.889 86.8119 147.707 85.6299 146.249 85.6299C144.791 85.6299 143.609 86.8119 143.609 88.2699C143.609 89.7279 144.791 90.9099 146.249 90.9099Z" fill="#3B82F6"/>
<path d="M122.31 90.9099C123.768 90.9099 124.95 89.7279 124.95 88.2699C124.95 86.8119 123.768 85.6299 122.31 85.6299C120.852 85.6299 119.67 86.8119 119.67 88.2699C119.67 89.7279 120.852 90.9099 122.31 90.9099Z" fill="#3B82F6"/>
<path d="M98.3802 90.9104C98.9048 90.9123 99.4181 90.7586 99.8552 90.4686C100.292 90.1787 100.634 89.7654 100.836 89.2814C101.038 88.7973 101.092 88.2642 100.991 87.7495C100.889 87.2348 100.638 86.7617 100.268 86.3901C99.8975 86.0185 99.4253 85.7651 98.911 85.662C98.3967 85.5589 97.8633 85.6108 97.3785 85.8111C96.8937 86.0114 96.4793 86.3511 96.1876 86.7871C95.896 87.2231 95.7402 87.7358 95.7402 88.2603C95.7402 88.9614 96.0181 89.6339 96.5129 90.1306C97.0078 90.6273 97.6792 90.9077 98.3802 90.9104V90.9104Z" fill="#3B82F6"/>
<path d="M74.4498 90.9104C74.9739 90.9104 75.4863 90.7549 75.9221 90.4638C76.3579 90.1726 76.6975 89.7587 76.8981 89.2745C77.0986 88.7903 77.1511 88.2574 77.0488 87.7434C76.9466 87.2293 76.6942 86.7572 76.3236 86.3865C75.953 86.0159 75.4808 85.7635 74.9668 85.6613C74.4527 85.559 73.9199 85.6115 73.4357 85.8121C72.9514 86.0127 72.5376 86.3523 72.2465 86.7881C71.9553 87.2239 71.7998 87.7362 71.7998 88.2603C71.7998 88.6083 71.8683 88.953 72.0015 89.2745C72.1346 89.596 72.3299 89.8881 72.5759 90.1342C72.822 90.3802 73.1142 90.5755 73.4357 90.7087C73.7572 90.8419 74.1018 90.9104 74.4498 90.9104V90.9104Z" fill="#3B82F6"/>
<path d="M50.5101 90.9099C51.9681 90.9099 53.1501 89.7279 53.1501 88.2699C53.1501 86.8119 51.9681 85.6299 50.5101 85.6299C49.0521 85.6299 47.8701 86.8119 47.8701 88.2699C47.8701 89.7279 49.0521 90.9099 50.5101 90.9099Z" fill="#3B82F6"/>
<path d="M27.5901 90.5952C28.9386 90.0408 29.5823 88.4982 29.0279 87.1497C28.4735 85.8012 26.9308 85.1575 25.5823 85.7119C24.2338 86.2664 23.5901 87.809 24.1445 89.1575C24.6989 90.506 26.2416 91.1497 27.5901 90.5952Z" fill="#3B82F6"/>
<path d="M2.65017 85.6602C2.1252 85.6582 1.61153 85.8122 1.17421 86.1026C0.736895 86.393 0.395678 86.8068 0.193868 87.2915C-0.00794293 87.7761 -0.0612624 88.3097 0.0406694 88.8247C0.142601 89.3397 0.395167 89.8128 0.766377 90.184C1.13759 90.5552 1.61065 90.8078 2.12563 90.9097C2.64061 91.0116 3.17433 90.9583 3.65896 90.7565C4.14359 90.5547 4.55737 90.2135 4.8478 89.7762C5.13822 89.3389 5.29216 88.8252 5.29018 88.3002C5.28755 87.6008 5.00858 86.9308 4.51406 86.4363C4.01953 85.9418 3.34953 85.6628 2.65017 85.6602V85.6602Z" fill="#3B82F6"/>
<path d="M146.249 69.4997C147.707 69.4997 148.889 68.3178 148.889 66.8597C148.889 65.4017 147.707 64.2197 146.249 64.2197C144.791 64.2197 143.609 65.4017 143.609 66.8597C143.609 68.3178 144.791 69.4997 146.249 69.4997Z" fill="#3B82F6"/>
<path d="M122.31 69.4997C123.768 69.4997 124.95 68.3178 124.95 66.8597C124.95 65.4017 123.768 64.2197 122.31 64.2197C120.852 64.2197 119.67 65.4017 119.67 66.8597C119.67 68.3178 120.852 69.4997 122.31 69.4997Z" fill="#3B82F6"/>
<path d="M98.3803 69.5002C98.9052 69.5022 99.419 69.3482 99.8563 69.0578C100.294 68.7673 100.635 68.3535 100.837 67.8689C101.038 67.3843 101.092 66.8506 100.99 66.3357C100.888 65.8207 100.635 65.3475 100.264 64.9763C99.893 64.6051 99.4198 64.3526 98.9048 64.2506C98.3898 64.1487 97.8562 64.202 97.3716 64.4038C96.887 64.6056 96.4732 64.9469 96.1828 65.3842C95.8923 65.8215 95.7383 66.3352 95.7403 66.8602C95.7429 67.5595 96.022 68.2295 96.5165 68.724C97.011 69.2185 97.6809 69.4976 98.3803 69.5002V69.5002Z" fill="#3B82F6"/>
<path d="M74.4498 69.5002C74.9744 69.5002 75.4871 69.3445 75.9231 69.0529C76.3591 68.7612 76.6988 68.3468 76.8991 67.862C77.0993 67.3772 77.1512 66.8438 77.0481 66.3295C76.9451 65.8152 76.6917 65.343 76.3201 64.9728C75.9485 64.6026 75.4753 64.351 74.9606 64.2499C74.4459 64.1488 73.9128 64.2027 73.4287 64.4048C72.9447 64.6069 72.5316 64.9481 72.2416 65.3852C71.9516 65.8223 71.7978 66.3356 71.7998 66.8602C71.7998 67.2077 71.8684 67.5518 72.0017 67.8728C72.135 68.1937 72.3304 68.4852 72.5766 68.7305C72.8228 68.9758 73.115 69.17 73.4364 69.3021C73.7579 69.4342 74.1023 69.5015 74.4498 69.5002V69.5002Z" fill="#3B82F6"/>
<path d="M50.5101 69.4997C51.9681 69.4997 53.1501 68.3178 53.1501 66.8597C53.1501 65.4017 51.9681 64.2197 50.5101 64.2197C49.0521 64.2197 47.8701 65.4017 47.8701 66.8597C47.8701 68.3178 49.0521 69.4997 50.5101 69.4997Z" fill="#3B82F6"/>
<path d="M27.5921 69.193C28.9406 68.6385 29.5843 67.0959 29.0299 65.7474C28.4754 64.3989 26.9328 63.7551 25.5843 64.3096C24.2358 64.864 23.592 66.4067 24.1465 67.7552C24.7009 69.1037 26.2436 69.7474 27.5921 69.193Z" fill="#3B82F6"/>
<path d="M2.65004 69.5002C3.17459 69.5002 3.68731 69.3445 4.12331 69.0529C4.55931 68.7612 4.89899 68.3468 5.09926 67.862C5.29954 67.3772 5.3515 66.8438 5.24843 66.3295C5.14537 65.8152 4.89189 65.343 4.52028 64.9728C4.14867 64.6026 3.67561 64.351 3.16091 64.2499C2.6462 64.1488 2.11309 64.2027 1.62905 64.4048C1.145 64.6069 0.731771 64.9481 0.441791 65.3852C0.151812 65.8223 -0.00196055 66.3356 1.88721e-05 66.8602C1.63788e-05 67.2077 0.0686259 67.5518 0.201923 67.8728C0.33522 68.1937 0.530667 68.4852 0.776874 68.7305C1.02308 68.9758 1.31528 69.17 1.63674 69.3021C1.95819 69.4342 2.30251 69.5015 2.65004 69.5002Z" fill="#3B82F6"/>
<path d="M146.249 48.0896C147.707 48.0896 148.889 46.9076 148.889 45.4496C148.889 43.9915 147.707 42.8096 146.249 42.8096C144.791 42.8096 143.609 43.9915 143.609 45.4496C143.609 46.9076 144.791 48.0896 146.249 48.0896Z" fill="#3B82F6"/>
<path d="M122.31 48.0896C123.768 48.0896 124.95 46.9076 124.95 45.4496C124.95 43.9915 123.768 42.8096 122.31 42.8096C120.852 42.8096 119.67 43.9915 119.67 45.4496C119.67 46.9076 120.852 48.0896 122.31 48.0896Z" fill="#3B82F6"/>
<path d="M98.3802 48.0998C98.9048 48.1018 99.4181 47.9481 99.8552 47.6581C100.292 47.3681 100.634 46.9549 100.836 46.4708C101.038 45.9868 101.092 45.4537 100.991 44.939C100.889 44.4243 100.638 43.9512 100.268 43.5795C99.8975 43.2079 99.4253 42.9545 98.911 42.8515C98.3967 42.7484 97.8633 42.8003 97.3785 43.0006C96.8937 43.2008 96.4793 43.5405 96.1876 43.9765C95.896 44.4125 95.7402 44.9252 95.7402 45.4498C95.7402 46.1509 96.0181 46.8234 96.5129 47.3201C97.0078 47.8168 97.6792 48.0972 98.3802 48.0998V48.0998Z" fill="#3B82F6"/>
<path d="M74.4498 48.0998C74.9739 48.0998 75.4863 47.9444 75.9221 47.6532C76.3579 47.362 76.6975 46.9482 76.8981 46.4639C77.0986 45.9797 77.1511 45.4469 77.0488 44.9328C76.9466 44.4188 76.6942 43.9465 76.3236 43.5759C75.953 43.2053 75.4808 42.953 74.9668 42.8507C74.4527 42.7485 73.9199 42.801 73.4357 43.0015C72.9514 43.2021 72.5376 43.5418 72.2465 43.9776C71.9553 44.4133 71.7998 44.9257 71.7998 45.4498C71.7998 45.7978 71.8683 46.1424 72.0015 46.4639C72.1346 46.7855 72.3299 47.0775 72.5759 47.3236C72.822 47.5697 73.1142 47.7649 73.4357 47.8981C73.7572 48.0313 74.1018 48.0998 74.4498 48.0998V48.0998Z" fill="#3B82F6"/>
<path d="M50.5101 48.0896C51.9681 48.0896 53.1501 46.9076 53.1501 45.4496C53.1501 43.9915 51.9681 42.8096 50.5101 42.8096C49.0521 42.8096 47.8701 43.9915 47.8701 45.4496C47.8701 46.9076 49.0521 48.0896 50.5101 48.0896Z" fill="#3B82F6"/>
<path d="M27.5911 47.7915C28.9396 47.237 29.5833 45.6944 29.0289 44.3459C28.4744 42.9974 26.9318 42.3537 25.5833 42.9081C24.2348 43.4626 23.591 45.0052 24.1455 46.3537C24.6999 47.7022 26.2426 48.3459 27.5911 47.7915Z" fill="#3B82F6"/>
<path d="M2.65002 48.0998C3.17414 48.0998 3.68652 47.9444 4.12231 47.6532C4.5581 47.362 4.89769 46.9482 5.09827 46.4639C5.29884 45.9797 5.3514 45.4469 5.24915 44.9328C5.14689 44.4188 4.89453 43.9465 4.52393 43.5759C4.15332 43.2053 3.68104 42.953 3.16699 42.8507C2.65294 42.7485 2.12021 42.801 1.63599 43.0015C1.15176 43.2021 0.737841 43.5418 0.446655 43.9776C0.15547 44.4133 0 44.9257 0 45.4498C0 46.1526 0.279274 46.8266 0.776245 47.3236C1.27322 47.8206 1.9472 48.0998 2.65002 48.0998V48.0998Z" fill="#3B82F6"/>
<path d="M146.249 26.6902C147.707 26.6902 148.889 25.5082 148.889 24.0502C148.889 22.5921 147.707 21.4102 146.249 21.4102C144.791 21.4102 143.609 22.5921 143.609 24.0502C143.609 25.5082 144.791 26.6902 146.249 26.6902Z" fill="#3B82F6"/>
<path d="M122.31 26.6902C123.768 26.6902 124.95 25.5082 124.95 24.0502C124.95 22.5921 123.768 21.4102 122.31 21.4102C120.852 21.4102 119.67 22.5921 119.67 24.0502C119.67 25.5082 120.852 26.6902 122.31 26.6902Z" fill="#3B82F6"/>
<path d="M98.3803 26.6604C98.9052 26.6623 99.419 26.5083 99.8563 26.2179C100.294 25.9275 100.635 25.5137 100.837 25.0291C101.038 24.5444 101.092 24.0108 100.99 23.4958C100.888 22.9808 100.635 22.5078 100.264 22.1366C99.893 21.7653 99.4198 21.5127 98.9048 21.4108C98.3898 21.3089 97.8562 21.3622 97.3716 21.564C96.887 21.7658 96.4732 22.107 96.1828 22.5443C95.8923 22.9817 95.7383 23.4954 95.7403 24.0203C95.7429 24.7197 96.022 25.3897 96.5165 25.8842C97.011 26.3788 97.6809 26.6577 98.3803 26.6604V26.6604Z" fill="#3B82F6"/>
<path d="M74.4498 26.6604C74.9744 26.6604 75.4871 26.5047 75.9231 26.213C76.3591 25.9214 76.6988 25.507 76.8991 25.0222C77.0993 24.5374 77.1512 24.004 77.0481 23.4897C76.9451 22.9754 76.6917 22.5032 76.3201 22.133C75.9485 21.7628 75.4753 21.5112 74.9606 21.4101C74.4459 21.3089 73.9128 21.3629 73.4287 21.565C72.9447 21.7671 72.5316 22.1083 72.2416 22.5454C71.9516 22.9825 71.7978 23.4958 71.7998 24.0203C71.7998 24.3679 71.8684 24.712 72.0017 25.033C72.135 25.3539 72.3304 25.6454 72.5766 25.8906C72.8228 26.1359 73.115 26.3302 73.4364 26.4623C73.7579 26.5944 74.1023 26.6617 74.4498 26.6604V26.6604Z" fill="#3B82F6"/>
<path d="M50.5101 26.6902C51.9681 26.6902 53.1501 25.5082 53.1501 24.0502C53.1501 22.5921 51.9681 21.4102 50.5101 21.4102C49.0521 21.4102 47.8701 22.5921 47.8701 24.0502C47.8701 25.5082 49.0521 26.6902 50.5101 26.6902Z" fill="#3B82F6"/>
<path d="M27.594 26.3892C28.9425 25.8348 29.5863 24.2922 29.0318 22.9437C28.4774 21.5952 26.9347 20.9514 25.5862 21.5059C24.2377 22.0603 23.594 23.603 24.1484 24.9515C24.7029 26.3 26.2455 26.9437 27.594 26.3892Z" fill="#3B82F6"/>
<path d="M2.65004 26.6604C3.17459 26.6604 3.68731 26.5047 4.12331 26.213C4.55931 25.9214 4.89899 25.507 5.09926 25.0222C5.29954 24.5374 5.3515 24.004 5.24843 23.4897C5.14537 22.9754 4.89189 22.5032 4.52028 22.133C4.14867 21.7628 3.67561 21.5112 3.16091 21.4101C2.6462 21.3089 2.11309 21.3629 1.62905 21.565C1.145 21.7671 0.731771 22.1083 0.441791 22.5454C0.151812 22.9825 -0.00196055 23.4958 1.88721e-05 24.0203C1.63788e-05 24.3679 0.0686259 24.712 0.201923 25.033C0.33522 25.3539 0.530667 25.6454 0.776874 25.8906C1.02308 26.1359 1.31528 26.3302 1.63674 26.4623C1.95819 26.5944 2.30251 26.6617 2.65004 26.6604V26.6604Z" fill="#3B82F6"/>
<path d="M146.249 5.28C147.707 5.28 148.889 4.09803 148.889 2.64C148.889 1.18197 147.707 0 146.249 0C144.791 0 143.609 1.18197 143.609 2.64C143.609 4.09803 144.791 5.28 146.249 5.28Z" fill="#3B82F6"/>
<path d="M122.31 5.28C123.768 5.28 124.95 4.09803 124.95 2.64C124.95 1.18197 123.768 0 122.31 0C120.852 0 119.67 1.18197 119.67 2.64C119.67 4.09803 120.852 5.28 122.31 5.28Z" fill="#3B82F6"/>
<path d="M98.3802 5.29024C98.9048 5.29222 99.4181 5.13851 99.8552 4.84853C100.292 4.55855 100.634 4.14532 100.836 3.66127C101.038 3.17723 101.092 2.64412 100.991 2.12941C100.889 1.61471 100.638 1.14159 100.268 0.769978C99.8975 0.398368 99.4253 0.144953 98.911 0.0418894C98.3967 -0.0611745 97.8633 -0.00927669 97.3785 0.190998C96.8937 0.391273 96.4793 0.730946 96.1876 1.16695C95.896 1.60295 95.7402 2.11567 95.7402 2.64022C95.7402 3.34131 96.0181 4.01383 96.5129 4.51052C97.0078 5.0072 97.6792 5.2876 98.3802 5.29024V5.29024Z" fill="#3B82F6"/>
<path d="M74.4498 5.29023C74.9739 5.29023 75.4863 5.13483 75.9221 4.84364C76.3579 4.55245 76.6975 4.13859 76.8981 3.65437C77.0986 3.17015 77.1511 2.63729 77.0488 2.12324C76.9466 1.60919 76.6942 1.13698 76.3236 0.76637C75.953 0.395761 75.4808 0.143401 74.9668 0.04115C74.4527 -0.0611008 73.9199 -0.00860433 73.4357 0.191968C72.9514 0.39254 72.5376 0.732191 72.2465 1.16798C71.9553 1.60377 71.7998 2.11609 71.7998 2.64021C71.7998 2.98821 71.8683 3.33286 72.0015 3.65437C72.1346 3.97588 72.3299 4.26798 72.5759 4.51405C72.822 4.76013 73.1142 4.95534 73.4357 5.08851C73.7572 5.22169 74.1018 5.29023 74.4498 5.29023V5.29023Z" fill="#3B82F6"/>
<path d="M50.5101 5.28C51.9681 5.28 53.1501 4.09803 53.1501 2.64C53.1501 1.18197 51.9681 0 50.5101 0C49.0521 0 47.8701 1.18197 47.8701 2.64C47.8701 4.09803 49.0521 5.28 50.5101 5.28Z" fill="#3B82F6"/>
<path d="M27.592 4.97708C28.9406 4.42265 29.5843 2.87999 29.0298 1.53149C28.4754 0.182988 26.9328 -0.460681 25.5843 0.0937553C24.2358 0.648191 23.592 2.19079 24.1465 3.53929C24.7009 4.88779 26.2435 5.53152 27.592 4.97708Z" fill="#3B82F6"/>
<path d="M2.65002 5.29023C3.17414 5.29023 3.68652 5.13483 4.12231 4.84364C4.5581 4.55245 4.89769 4.13859 5.09827 3.65437C5.29884 3.17015 5.3514 2.63729 5.24915 2.12324C5.14689 1.60919 4.89453 1.13698 4.52393 0.76637C4.15332 0.395761 3.68104 0.143401 3.16699 0.04115C2.65294 -0.0611008 2.12021 -0.00860433 1.63599 0.191968C1.15176 0.39254 0.737841 0.732191 0.446655 1.16798C0.15547 1.60377 0 2.11609 0 2.64021C0 3.34303 0.279274 4.01708 0.776245 4.51405C1.27322 5.01102 1.9472 5.29023 2.65002 5.29023V5.29023Z" fill="#3B82F6"/>
</g>
<defs>
<clipPath id="clip0_1384_22237">
<rect width="148.89" height="90.91" fill="white" transform="translate(0 108)"/>
</clipPath>
<clipPath id="clip1_1384_22237">
<rect width="148.89" height="90.91" fill="white"/>
</clipPath>
</defs>
</svg>
