<svg width="199" height="149" viewBox="0 0 199 149" fill="none" xmlns="http://www.w3.org/2000/svg">
<g clip-path="url(#clip0_1384_30010)">
<path d="M198.91 2.75063C198.91 1.29259 197.728 0.110626 196.27 0.110626C194.812 0.110626 193.63 1.29259 193.63 2.75063C193.63 4.20866 194.812 5.39062 196.27 5.39062C197.728 5.39062 198.91 4.20866 198.91 2.75063Z" fill="#EF5944"/>
<path d="M198.91 26.6901C198.91 25.232 197.728 24.0501 196.27 24.0501C194.812 24.0501 193.63 25.232 193.63 26.6901C193.63 28.1481 194.812 29.3301 196.27 29.3301C197.728 29.3301 198.91 28.1481 198.91 26.6901Z" fill="#EF5944"/>
<path d="M198.91 50.6198C198.912 50.0952 198.759 49.5819 198.469 49.1448C198.179 48.7077 197.765 48.3664 197.281 48.1643C196.797 47.9622 196.264 47.9083 195.75 48.0094C195.235 48.1105 194.762 48.3621 194.39 48.7323C194.018 49.1025 193.765 49.5747 193.662 50.089C193.559 50.6033 193.611 51.1367 193.811 51.6215C194.011 52.1063 194.351 52.5207 194.787 52.8124C195.223 53.104 195.736 53.2598 196.26 53.2598C196.961 53.2598 197.634 52.9819 198.131 52.4871C198.627 51.9922 198.908 51.3208 198.91 50.6198V50.6198Z" fill="#EF5944"/>
<path d="M198.91 74.5502C198.91 74.0261 198.755 73.5137 198.464 73.0779C198.173 72.6421 197.759 72.3025 197.274 72.1019C196.79 71.9014 196.257 71.8489 195.743 71.9512C195.229 72.0534 194.757 72.3058 194.387 72.6764C194.016 73.047 193.764 73.5192 193.661 74.0332C193.559 74.5473 193.612 75.0801 193.812 75.5643C194.013 76.0486 194.352 76.4624 194.788 76.7535C195.224 77.0447 195.736 77.2002 196.26 77.2002C196.608 77.2002 196.953 77.1317 197.274 76.9985C197.596 76.8654 197.888 76.6701 198.134 76.4241C198.38 76.178 198.576 75.8858 198.709 75.5643C198.842 75.2428 198.91 74.8982 198.91 74.5502V74.5502Z" fill="#EF5944"/>
<path d="M198.91 98.4899C198.91 97.0319 197.728 95.8499 196.27 95.8499C194.812 95.8499 193.63 97.0319 193.63 98.4899C193.63 99.9479 194.812 101.13 196.27 101.13C197.728 101.13 198.91 99.9479 198.91 98.4899Z" fill="#EF5944"/>
<path d="M198.595 121.41C198.041 120.061 196.498 119.418 195.15 119.972C193.801 120.527 193.157 122.069 193.712 123.418C194.266 124.766 195.809 125.41 197.157 124.855C198.506 124.301 199.15 122.758 198.595 121.41Z" fill="#EF5944"/>
<path d="M193.66 146.35C193.658 146.875 193.812 147.388 194.103 147.826C194.393 148.263 194.807 148.604 195.291 148.806C195.776 149.008 196.31 149.061 196.825 148.959C197.34 148.857 197.813 148.605 198.184 148.234C198.555 147.862 198.808 147.389 198.91 146.874C199.012 146.359 198.958 145.826 198.756 145.341C198.555 144.856 198.214 144.443 197.776 144.152C197.339 143.862 196.825 143.708 196.3 143.71C195.601 143.712 194.931 143.991 194.436 144.486C193.942 144.98 193.663 145.65 193.66 146.35V146.35Z" fill="#EF5944"/>
<path d="M177.5 2.75063C177.5 1.29259 176.318 0.110626 174.86 0.110626C173.402 0.110626 172.22 1.29259 172.22 2.75063C172.22 4.20866 173.402 5.39062 174.86 5.39062C176.318 5.39062 177.5 4.20866 177.5 2.75063Z" fill="#EF5944"/>
<path d="M177.5 26.6901C177.5 25.232 176.318 24.0501 174.86 24.0501C173.402 24.0501 172.22 25.232 172.22 26.6901C172.22 28.1481 173.402 29.3301 174.86 29.3301C176.318 29.3301 177.5 28.1481 177.5 26.6901Z" fill="#EF5944"/>
<path d="M177.5 50.6197C177.502 50.0948 177.348 49.581 177.058 49.1437C176.767 48.7063 176.354 48.3651 175.869 48.1633C175.384 47.9615 174.851 47.9082 174.336 48.0101C173.821 48.112 173.348 48.3646 172.976 48.7358C172.605 49.107 172.353 49.5802 172.251 50.0952C172.149 50.6102 172.202 51.1438 172.404 51.6284C172.606 52.113 172.947 52.5268 173.384 52.8172C173.821 53.1077 174.335 53.2617 174.86 53.2597C175.56 53.2571 176.229 52.978 176.724 52.4835C177.219 51.989 177.498 51.3191 177.5 50.6197V50.6197Z" fill="#EF5944"/>
<path d="M177.5 74.5502C177.5 74.0256 177.345 73.5129 177.053 73.0769C176.761 72.6409 176.347 72.3012 175.862 72.1009C175.377 71.9007 174.844 71.8488 174.329 71.9519C173.815 72.0549 173.343 72.3083 172.973 72.6799C172.603 73.0515 172.351 73.5247 172.25 74.0394C172.149 74.5541 172.203 75.0872 172.405 75.5713C172.607 76.0553 172.948 76.4684 173.385 76.7584C173.822 77.0484 174.336 77.2022 174.86 77.2002C175.208 77.2002 175.552 77.1316 175.873 76.9983C176.194 76.865 176.485 76.6696 176.73 76.4234C176.976 76.1772 177.17 75.885 177.302 75.5636C177.434 75.2421 177.502 74.8977 177.5 74.5502V74.5502Z" fill="#EF5944"/>
<path d="M177.5 98.4899C177.5 97.0319 176.318 95.8499 174.86 95.8499C173.402 95.8499 172.22 97.0319 172.22 98.4899C172.22 99.9479 173.402 101.13 174.86 101.13C176.318 101.13 177.5 99.9479 177.5 98.4899Z" fill="#EF5944"/>
<path d="M177.193 121.408C176.639 120.059 175.096 119.416 173.747 119.97C172.399 120.525 171.755 122.067 172.31 123.416C172.864 124.764 174.407 125.408 175.755 124.854C177.104 124.299 177.747 122.756 177.193 121.408Z" fill="#EF5944"/>
<path d="M177.5 146.35C177.5 145.825 177.345 145.313 177.053 144.877C176.761 144.441 176.347 144.101 175.862 143.901C175.377 143.7 174.844 143.649 174.329 143.752C173.815 143.855 173.343 144.108 172.973 144.48C172.603 144.851 172.351 145.324 172.25 145.839C172.149 146.354 172.203 146.887 172.405 147.371C172.607 147.855 172.948 148.268 173.385 148.558C173.822 148.848 174.336 149.002 174.86 149C175.208 149 175.552 148.931 175.873 148.798C176.194 148.665 176.485 148.469 176.73 148.223C176.976 147.977 177.17 147.685 177.302 147.363C177.434 147.042 177.502 146.697 177.5 146.35Z" fill="#EF5944"/>
<path d="M156.09 2.75063C156.09 1.29259 154.908 0.110626 153.45 0.110626C151.992 0.110626 150.81 1.29259 150.81 2.75063C150.81 4.20866 151.992 5.39062 153.45 5.39062C154.908 5.39062 156.09 4.20866 156.09 2.75063Z" fill="#EF5944"/>
<path d="M156.09 26.6901C156.09 25.232 154.908 24.0501 153.45 24.0501C151.992 24.0501 150.81 25.232 150.81 26.6901C150.81 28.1481 151.992 29.3301 153.45 29.3301C154.908 29.3301 156.09 28.1481 156.09 26.6901Z" fill="#EF5944"/>
<path d="M156.1 50.6198C156.102 50.0952 155.948 49.5819 155.658 49.1448C155.368 48.7077 154.955 48.3664 154.471 48.1643C153.987 47.9622 153.454 47.9083 152.939 48.0094C152.424 48.1105 151.951 48.3621 151.58 48.7323C151.208 49.1025 150.955 49.5747 150.851 50.089C150.748 50.6033 150.8 51.1367 151.001 51.6215C151.201 52.1063 151.541 52.5207 151.977 52.8124C152.413 53.104 152.925 53.2598 153.45 53.2598C154.151 53.2598 154.823 52.9819 155.32 52.4871C155.817 51.9922 156.097 51.3208 156.1 50.6198V50.6198Z" fill="#EF5944"/>
<path d="M156.1 74.5502C156.1 74.0261 155.944 73.5137 155.653 73.0779C155.362 72.6421 154.948 72.3025 154.464 72.1019C153.98 71.9014 153.447 71.8489 152.933 71.9512C152.419 72.0534 151.947 72.3058 151.576 72.6764C151.205 73.047 150.953 73.5192 150.851 74.0332C150.748 74.5473 150.801 75.0801 151.002 75.5643C151.202 76.0486 151.542 76.4624 151.978 76.7535C152.413 77.0447 152.926 77.2002 153.45 77.2002C153.798 77.2002 154.142 77.1317 154.464 76.9985C154.785 76.8654 155.078 76.6701 155.324 76.4241C155.57 76.178 155.765 75.8858 155.898 75.5643C156.031 75.2428 156.1 74.8982 156.1 74.5502V74.5502Z" fill="#EF5944"/>
<path d="M156.09 98.4899C156.09 97.0319 154.908 95.8499 153.45 95.8499C151.992 95.8499 150.81 97.0319 150.81 98.4899C150.81 99.9479 151.992 101.13 153.45 101.13C154.908 101.13 156.09 99.9479 156.09 98.4899Z" fill="#EF5944"/>
<path d="M155.792 121.409C155.237 120.06 153.694 119.417 152.346 119.971C150.997 120.526 150.354 122.068 150.908 123.417C151.463 124.765 153.005 125.409 154.354 124.855C155.702 124.3 156.346 122.757 155.792 121.409Z" fill="#EF5944"/>
<path d="M156.1 146.35C156.1 145.826 155.944 145.313 155.653 144.878C155.362 144.442 154.948 144.102 154.464 143.902C153.98 143.701 153.447 143.649 152.933 143.751C152.419 143.853 151.947 144.105 151.576 144.476C151.205 144.847 150.953 145.319 150.851 145.833C150.748 146.347 150.801 146.88 151.002 147.364C151.202 147.848 151.542 148.262 151.978 148.553C152.413 148.845 152.926 149 153.45 149C154.153 149 154.827 148.721 155.324 148.224C155.821 147.727 156.1 147.053 156.1 146.35V146.35Z" fill="#EF5944"/>
<path d="M134.69 2.75063C134.69 1.29259 133.508 0.110626 132.05 0.110626C130.592 0.110626 129.41 1.29259 129.41 2.75063C129.41 4.20866 130.592 5.39062 132.05 5.39062C133.508 5.39062 134.69 4.20866 134.69 2.75063Z" fill="#EF5944"/>
<path d="M134.69 26.6901C134.69 25.232 133.508 24.0501 132.05 24.0501C130.592 24.0501 129.41 25.232 129.41 26.6901C129.41 28.1481 130.592 29.3301 132.05 29.3301C133.508 29.3301 134.69 28.1481 134.69 26.6901Z" fill="#EF5944"/>
<path d="M134.66 50.6197C134.662 50.0948 134.508 49.581 134.218 49.1437C133.927 48.7063 133.514 48.3651 133.029 48.1633C132.544 47.9615 132.011 47.9082 131.496 48.0101C130.981 48.112 130.508 48.3646 130.137 48.7358C129.765 49.107 129.513 49.5802 129.411 50.0952C129.309 50.6102 129.362 51.1438 129.564 51.6284C129.766 52.113 130.107 52.5268 130.544 52.8172C130.982 53.1077 131.495 53.2617 132.02 53.2597C132.72 53.2571 133.39 52.978 133.884 52.4835C134.379 51.989 134.658 51.3191 134.66 50.6197V50.6197Z" fill="#EF5944"/>
<path d="M134.66 74.5502C134.66 74.0256 134.505 73.5129 134.213 73.0769C133.921 72.6409 133.507 72.3012 133.022 72.1009C132.537 71.9007 132.004 71.8488 131.49 71.9519C130.975 72.0549 130.503 72.3083 130.133 72.6799C129.763 73.0515 129.511 73.5247 129.41 74.0394C129.309 74.5541 129.363 75.0872 129.565 75.5713C129.767 76.0553 130.108 76.4684 130.545 76.7584C130.982 77.0484 131.496 77.2022 132.02 77.2002C132.368 77.2002 132.712 77.1316 133.033 76.9983C133.354 76.865 133.645 76.6696 133.891 76.4234C134.136 76.1772 134.33 75.885 134.462 75.5636C134.594 75.2421 134.662 74.8977 134.66 74.5502V74.5502Z" fill="#EF5944"/>
<path d="M134.69 98.4899C134.69 97.0319 133.508 95.8499 132.05 95.8499C130.592 95.8499 129.41 97.0319 129.41 98.4899C129.41 99.9479 130.592 101.13 132.05 101.13C133.508 101.13 134.69 99.9479 134.69 98.4899Z" fill="#EF5944"/>
<path d="M134.389 121.406C133.835 120.057 132.292 119.414 130.944 119.968C129.595 120.523 128.951 122.065 129.506 123.414C130.06 124.762 131.603 125.406 132.951 124.852C134.3 124.297 134.944 122.754 134.389 121.406Z" fill="#EF5944"/>
<path d="M134.66 146.35C134.66 145.825 134.505 145.313 134.213 144.877C133.921 144.441 133.507 144.101 133.022 143.901C132.537 143.7 132.004 143.649 131.49 143.752C130.975 143.855 130.503 144.108 130.133 144.48C129.763 144.851 129.511 145.324 129.41 145.839C129.309 146.354 129.363 146.887 129.565 147.371C129.767 147.855 130.108 148.268 130.545 148.558C130.982 148.848 131.496 149.002 132.02 149C132.368 149 132.712 148.931 133.033 148.798C133.354 148.665 133.645 148.469 133.891 148.223C134.136 147.977 134.33 147.685 134.462 147.363C134.594 147.042 134.662 146.697 134.66 146.35V146.35Z" fill="#EF5944"/>
<path d="M113.28 2.75063C113.28 1.29259 112.098 0.110626 110.64 0.110626C109.182 0.110626 108 1.29259 108 2.75063C108 4.20866 109.182 5.39062 110.64 5.39062C112.098 5.39062 113.28 4.20866 113.28 2.75063Z" fill="#EF5944"/>
<path d="M113.28 26.6901C113.28 25.232 112.098 24.0501 110.64 24.0501C109.182 24.0501 108 25.232 108 26.6901C108 28.1481 109.182 29.3301 110.64 29.3301C112.098 29.3301 113.28 28.1481 113.28 26.6901Z" fill="#EF5944"/>
<path d="M113.29 50.6198C113.292 50.0952 113.139 49.5819 112.849 49.1448C112.559 48.7077 112.145 48.3664 111.661 48.1643C111.177 47.9622 110.644 47.9083 110.129 48.0094C109.615 48.1105 109.142 48.3621 108.77 48.7323C108.398 49.1025 108.145 49.5747 108.042 50.089C107.939 50.6033 107.991 51.1367 108.191 51.6215C108.391 52.1063 108.731 52.5207 109.167 52.8124C109.603 53.104 110.116 53.2598 110.64 53.2598C111.341 53.2598 112.014 52.9819 112.511 52.4871C113.007 51.9922 113.288 51.3208 113.29 50.6198V50.6198Z" fill="#EF5944"/>
<path d="M113.29 74.5502C113.29 74.0261 113.135 73.5137 112.844 73.0779C112.552 72.6421 112.139 72.3025 111.654 72.1019C111.17 71.9014 110.637 71.8489 110.123 71.9512C109.609 72.0534 109.137 72.3058 108.766 72.6764C108.396 73.047 108.143 73.5192 108.041 74.0332C107.939 74.5473 107.991 75.0801 108.192 75.5643C108.393 76.0486 108.732 76.4624 109.168 76.7535C109.604 77.0447 110.116 77.2002 110.64 77.2002C110.988 77.2002 111.333 77.1317 111.654 76.9985C111.976 76.8654 112.268 76.6701 112.514 76.4241C112.76 76.178 112.955 75.8858 113.089 75.5643C113.222 75.2428 113.29 74.8982 113.29 74.5502V74.5502Z" fill="#EF5944"/>
<path d="M113.28 98.4899C113.28 97.0319 112.098 95.8499 110.64 95.8499C109.182 95.8499 108 97.0319 108 98.4899C108 99.9479 109.182 101.13 110.64 101.13C112.098 101.13 113.28 99.9479 113.28 98.4899Z" fill="#EF5944"/>
<path d="M112.977 121.408C112.423 120.059 110.88 119.416 109.531 119.97C108.183 120.525 107.539 122.067 108.094 123.416C108.648 124.764 110.191 125.408 111.539 124.854C112.888 124.299 113.532 122.756 112.977 121.408Z" fill="#EF5944"/>
<path d="M113.29 146.35C113.29 145.826 113.135 145.313 112.844 144.878C112.552 144.442 112.139 144.102 111.654 143.902C111.17 143.701 110.637 143.649 110.123 143.751C109.609 143.853 109.137 144.105 108.766 144.476C108.396 144.847 108.143 145.319 108.041 145.833C107.939 146.347 107.991 146.88 108.192 147.364C108.393 147.848 108.732 148.262 109.168 148.553C109.604 148.845 110.116 149 110.64 149C111.343 149 112.017 148.721 112.514 148.224C113.011 147.727 113.29 147.053 113.29 146.35V146.35Z" fill="#EF5944"/>
</g>
<g clip-path="url(#clip1_1384_30010)">
<path d="M90.9099 2.75063C90.9099 1.29259 89.7279 0.110626 88.2699 0.110626C86.8119 0.110626 85.6299 1.29259 85.6299 2.75063C85.6299 4.20866 86.8119 5.39062 88.2699 5.39062C89.7279 5.39062 90.9099 4.20866 90.9099 2.75063Z" fill="#EF5944"/>
<path d="M90.9099 26.6901C90.9099 25.232 89.7279 24.0501 88.2699 24.0501C86.8119 24.0501 85.6299 25.232 85.6299 26.6901C85.6299 28.1481 86.8119 29.3301 88.2699 29.3301C89.7279 29.3301 90.9099 28.1481 90.9099 26.6901Z" fill="#EF5944"/>
<path d="M90.9104 50.6198C90.9123 50.0952 90.7586 49.5819 90.4686 49.1448C90.1787 48.7077 89.7654 48.3664 89.2814 48.1643C88.7973 47.9622 88.2642 47.9083 87.7495 48.0094C87.2348 48.1105 86.7617 48.3621 86.3901 48.7323C86.0185 49.1025 85.7651 49.5747 85.662 50.089C85.5589 50.6033 85.6108 51.1367 85.8111 51.6215C86.0114 52.1063 86.3511 52.5207 86.7871 52.8124C87.2231 53.104 87.7358 53.2598 88.2603 53.2598C88.9614 53.2598 89.6339 52.9819 90.1306 52.4871C90.6273 51.9922 90.9077 51.3208 90.9104 50.6198V50.6198Z" fill="#EF5944"/>
<path d="M90.9104 74.5502C90.9104 74.0261 90.7549 73.5137 90.4638 73.0779C90.1726 72.6421 89.7587 72.3025 89.2745 72.1019C88.7903 71.9014 88.2574 71.8489 87.7434 71.9512C87.2293 72.0534 86.7572 72.3058 86.3865 72.6764C86.0159 73.047 85.7635 73.5192 85.6613 74.0332C85.559 74.5473 85.6115 75.0801 85.8121 75.5643C86.0127 76.0486 86.3523 76.4624 86.7881 76.7535C87.2239 77.0447 87.7362 77.2002 88.2603 77.2002C88.6083 77.2002 88.953 77.1317 89.2745 76.9985C89.596 76.8654 89.8881 76.6701 90.1342 76.4241C90.3802 76.178 90.5755 75.8858 90.7087 75.5643C90.8419 75.2428 90.9104 74.8982 90.9104 74.5502V74.5502Z" fill="#EF5944"/>
<path d="M90.9099 98.4899C90.9099 97.0319 89.7279 95.8499 88.2699 95.8499C86.8119 95.8499 85.6299 97.0319 85.6299 98.4899C85.6299 99.9479 86.8119 101.13 88.2699 101.13C89.7279 101.13 90.9099 99.9479 90.9099 98.4899Z" fill="#EF5944"/>
<path d="M90.5952 121.41C90.0408 120.061 88.4982 119.418 87.1497 119.972C85.8012 120.527 85.1575 122.069 85.7119 123.418C86.2664 124.766 87.809 125.41 89.1575 124.855C90.506 124.301 91.1497 122.758 90.5952 121.41Z" fill="#EF5944"/>
<path d="M85.6602 146.35C85.6582 146.875 85.8122 147.388 86.1026 147.826C86.393 148.263 86.8068 148.604 87.2915 148.806C87.7761 149.008 88.3097 149.061 88.8247 148.959C89.3397 148.857 89.8128 148.605 90.184 148.234C90.5552 147.862 90.8078 147.389 90.9097 146.874C91.0116 146.359 90.9583 145.826 90.7565 145.341C90.5547 144.856 90.2135 144.443 89.7762 144.152C89.3389 143.862 88.8252 143.708 88.3002 143.71C87.6008 143.712 86.9308 143.991 86.4363 144.486C85.9418 144.98 85.6628 145.65 85.6602 146.35V146.35Z" fill="#EF5944"/>
<path d="M69.4997 2.75063C69.4997 1.29259 68.3178 0.110626 66.8597 0.110626C65.4017 0.110626 64.2197 1.29259 64.2197 2.75063C64.2197 4.20866 65.4017 5.39062 66.8597 5.39062C68.3178 5.39062 69.4997 4.20866 69.4997 2.75063Z" fill="#EF5944"/>
<path d="M69.4997 26.6901C69.4997 25.232 68.3178 24.0501 66.8597 24.0501C65.4017 24.0501 64.2197 25.232 64.2197 26.6901C64.2197 28.1481 65.4017 29.3301 66.8597 29.3301C68.3178 29.3301 69.4997 28.1481 69.4997 26.6901Z" fill="#EF5944"/>
<path d="M69.5002 50.6197C69.5022 50.0948 69.3482 49.581 69.0578 49.1437C68.7673 48.7063 68.3535 48.3651 67.8689 48.1633C67.3843 47.9615 66.8506 47.9082 66.3357 48.0101C65.8207 48.112 65.3475 48.3646 64.9763 48.7358C64.6051 49.107 64.3526 49.5802 64.2506 50.0952C64.1487 50.6102 64.202 51.1438 64.4038 51.6284C64.6056 52.113 64.9469 52.5268 65.3842 52.8172C65.8215 53.1077 66.3352 53.2617 66.8602 53.2597C67.5595 53.2571 68.2295 52.978 68.724 52.4835C69.2185 51.989 69.4976 51.3191 69.5002 50.6197V50.6197Z" fill="#EF5944"/>
<path d="M69.5002 74.5502C69.5002 74.0256 69.3445 73.5129 69.0529 73.0769C68.7612 72.6409 68.3468 72.3012 67.862 72.1009C67.3772 71.9007 66.8438 71.8488 66.3295 71.9519C65.8152 72.0549 65.343 72.3083 64.9728 72.6799C64.6026 73.0515 64.351 73.5247 64.2499 74.0394C64.1488 74.5541 64.2027 75.0872 64.4048 75.5713C64.6069 76.0553 64.9481 76.4684 65.3852 76.7584C65.8223 77.0484 66.3356 77.2022 66.8602 77.2002C67.2077 77.2002 67.5518 77.1316 67.8728 76.9983C68.1937 76.865 68.4852 76.6696 68.7305 76.4234C68.9758 76.1772 69.17 75.885 69.3021 75.5636C69.4342 75.2421 69.5015 74.8977 69.5002 74.5502V74.5502Z" fill="#EF5944"/>
<path d="M69.4997 98.4899C69.4997 97.0319 68.3178 95.8499 66.8597 95.8499C65.4017 95.8499 64.2197 97.0319 64.2197 98.4899C64.2197 99.9479 65.4017 101.13 66.8597 101.13C68.3178 101.13 69.4997 99.9479 69.4997 98.4899Z" fill="#EF5944"/>
<path d="M69.193 121.408C68.6385 120.059 67.0959 119.416 65.7474 119.97C64.3989 120.525 63.7551 122.067 64.3096 123.416C64.864 124.764 66.4067 125.408 67.7552 124.854C69.1037 124.299 69.7474 122.756 69.193 121.408Z" fill="#EF5944"/>
<path d="M69.5002 146.35C69.5002 145.825 69.3445 145.313 69.0529 144.877C68.7612 144.441 68.3468 144.101 67.862 143.901C67.3772 143.7 66.8438 143.649 66.3295 143.752C65.8152 143.855 65.343 144.108 64.9728 144.48C64.6026 144.851 64.351 145.324 64.2499 145.839C64.1488 146.354 64.2027 146.887 64.4048 147.371C64.6069 147.855 64.9481 148.268 65.3852 148.558C65.8223 148.848 66.3356 149.002 66.8602 149C67.2077 149 67.5518 148.931 67.8728 148.798C68.1937 148.665 68.4852 148.469 68.7305 148.223C68.9758 147.977 69.17 147.685 69.3021 147.363C69.4342 147.042 69.5015 146.697 69.5002 146.35Z" fill="#EF5944"/>
<path d="M48.0896 2.75063C48.0896 1.29259 46.9076 0.110626 45.4496 0.110626C43.9915 0.110626 42.8096 1.29259 42.8096 2.75063C42.8096 4.20866 43.9915 5.39062 45.4496 5.39062C46.9076 5.39062 48.0896 4.20866 48.0896 2.75063Z" fill="#EF5944"/>
<path d="M48.0896 26.6901C48.0896 25.232 46.9076 24.0501 45.4496 24.0501C43.9915 24.0501 42.8096 25.232 42.8096 26.6901C42.8096 28.1481 43.9915 29.3301 45.4496 29.3301C46.9076 29.3301 48.0896 28.1481 48.0896 26.6901Z" fill="#EF5944"/>
<path d="M48.0998 50.6198C48.1018 50.0952 47.9481 49.5819 47.6581 49.1448C47.3681 48.7077 46.9549 48.3664 46.4708 48.1643C45.9868 47.9622 45.4537 47.9083 44.939 48.0094C44.4243 48.1105 43.9512 48.3621 43.5795 48.7323C43.2079 49.1025 42.9545 49.5747 42.8515 50.089C42.7484 50.6033 42.8003 51.1367 43.0006 51.6215C43.2008 52.1063 43.5405 52.5207 43.9765 52.8124C44.4125 53.104 44.9252 53.2598 45.4498 53.2598C46.1509 53.2598 46.8234 52.9819 47.3201 52.4871C47.8168 51.9922 48.0972 51.3208 48.0998 50.6198V50.6198Z" fill="#EF5944"/>
<path d="M48.0998 74.5502C48.0998 74.0261 47.9444 73.5137 47.6532 73.0779C47.362 72.6421 46.9482 72.3025 46.4639 72.1019C45.9797 71.9014 45.4469 71.8489 44.9328 71.9512C44.4188 72.0534 43.9465 72.3058 43.5759 72.6764C43.2053 73.047 42.953 73.5192 42.8507 74.0332C42.7485 74.5473 42.801 75.0801 43.0015 75.5643C43.2021 76.0486 43.5418 76.4624 43.9776 76.7535C44.4133 77.0447 44.9257 77.2002 45.4498 77.2002C45.7978 77.2002 46.1424 77.1317 46.4639 76.9985C46.7855 76.8654 47.0775 76.6701 47.3236 76.4241C47.5697 76.178 47.7649 75.8858 47.8981 75.5643C48.0313 75.2428 48.0998 74.8982 48.0998 74.5502V74.5502Z" fill="#EF5944"/>
<path d="M48.0896 98.4899C48.0896 97.0319 46.9076 95.8499 45.4496 95.8499C43.9915 95.8499 42.8096 97.0319 42.8096 98.4899C42.8096 99.9479 43.9915 101.13 45.4496 101.13C46.9076 101.13 48.0896 99.9479 48.0896 98.4899Z" fill="#EF5944"/>
<path d="M47.7915 121.409C47.2371 120.06 45.6944 119.417 44.3459 119.971C42.9974 120.526 42.3538 122.068 42.9082 123.417C43.4626 124.765 45.0052 125.409 46.3537 124.855C47.7022 124.3 48.346 122.757 47.7915 121.409Z" fill="#EF5944"/>
<path d="M48.0998 146.35C48.0998 145.826 47.9444 145.313 47.6532 144.878C47.362 144.442 46.9482 144.102 46.4639 143.902C45.9797 143.701 45.4469 143.649 44.9328 143.751C44.4188 143.853 43.9465 144.105 43.5759 144.476C43.2053 144.847 42.953 145.319 42.8507 145.833C42.7485 146.347 42.801 146.88 43.0015 147.364C43.2021 147.848 43.5418 148.262 43.9776 148.553C44.4133 148.845 44.9257 149 45.4498 149C46.1526 149 46.8266 148.721 47.3236 148.224C47.8206 147.727 48.0998 147.053 48.0998 146.35V146.35Z" fill="#EF5944"/>
<path d="M26.6902 2.75063C26.6902 1.29259 25.5082 0.110626 24.0502 0.110626C22.5921 0.110626 21.4102 1.29259 21.4102 2.75063C21.4102 4.20866 22.5921 5.39062 24.0502 5.39062C25.5082 5.39062 26.6902 4.20866 26.6902 2.75063Z" fill="#EF5944"/>
<path d="M26.6902 26.6901C26.6902 25.232 25.5082 24.0501 24.0502 24.0501C22.5921 24.0501 21.4102 25.232 21.4102 26.6901C21.4102 28.1481 22.5921 29.3301 24.0502 29.3301C25.5082 29.3301 26.6902 28.1481 26.6902 26.6901Z" fill="#EF5944"/>
<path d="M26.6604 50.6197C26.6623 50.0948 26.5083 49.581 26.2179 49.1437C25.9275 48.7063 25.5137 48.3651 25.0291 48.1633C24.5444 47.9615 24.0108 47.9082 23.4958 48.0101C22.9808 48.112 22.5078 48.3646 22.1366 48.7358C21.7653 49.107 21.5127 49.5802 21.4108 50.0952C21.3089 50.6102 21.3622 51.1438 21.564 51.6284C21.7658 52.113 22.107 52.5268 22.5443 52.8172C22.9817 53.1077 23.4954 53.2617 24.0203 53.2597C24.7197 53.2571 25.3897 52.978 25.8842 52.4835C26.3788 51.989 26.6577 51.3191 26.6604 50.6197V50.6197Z" fill="#EF5944"/>
<path d="M26.6604 74.5502C26.6604 74.0256 26.5047 73.5129 26.213 73.0769C25.9214 72.6409 25.507 72.3012 25.0222 72.1009C24.5374 71.9007 24.004 71.8488 23.4897 71.9519C22.9754 72.0549 22.5032 72.3083 22.133 72.6799C21.7628 73.0515 21.5112 73.5247 21.4101 74.0394C21.3089 74.5541 21.3629 75.0872 21.565 75.5713C21.7671 76.0553 22.1083 76.4684 22.5454 76.7584C22.9825 77.0484 23.4958 77.2022 24.0203 77.2002C24.3679 77.2002 24.712 77.1316 25.033 76.9983C25.3539 76.865 25.6454 76.6696 25.8906 76.4234C26.1359 76.1772 26.3302 75.885 26.4623 75.5636C26.5944 75.2421 26.6617 74.8977 26.6604 74.5502V74.5502Z" fill="#EF5944"/>
<path d="M26.6902 98.4899C26.6902 97.0319 25.5082 95.8499 24.0502 95.8499C22.5921 95.8499 21.4102 97.0319 21.4102 98.4899C21.4102 99.9479 22.5921 101.13 24.0502 101.13C25.5082 101.13 26.6902 99.9479 26.6902 98.4899Z" fill="#EF5944"/>
<path d="M26.3892 121.406C25.8348 120.057 24.2922 119.414 22.9437 119.968C21.5952 120.523 20.9514 122.065 21.5059 123.414C22.0603 124.762 23.603 125.406 24.9515 124.852C26.3 124.297 26.9437 122.754 26.3892 121.406Z" fill="#EF5944"/>
<path d="M26.6604 146.35C26.6604 145.825 26.5047 145.313 26.213 144.877C25.9214 144.441 25.507 144.101 25.0222 143.901C24.5374 143.7 24.004 143.649 23.4897 143.752C22.9754 143.855 22.5032 144.108 22.133 144.48C21.7628 144.851 21.5112 145.324 21.4101 145.839C21.3089 146.354 21.3629 146.887 21.565 147.371C21.7671 147.855 22.1083 148.268 22.5454 148.558C22.9825 148.848 23.4958 149.002 24.0203 149C24.3679 149 24.712 148.931 25.033 148.798C25.3539 148.665 25.6454 148.469 25.8906 148.223C26.1359 147.977 26.3302 147.685 26.4623 147.363C26.5944 147.042 26.6617 146.697 26.6604 146.35V146.35Z" fill="#EF5944"/>
<path d="M5.28 2.75063C5.28 1.29259 4.09803 0.110626 2.64 0.110626C1.18197 0.110626 -1.79131e-07 1.29259 -1.15398e-07 2.75063C-5.16654e-08 4.20866 1.18197 5.39062 2.64 5.39062C4.09803 5.39062 5.28 4.20866 5.28 2.75063Z" fill="#EF5944"/>
<path d="M5.28 26.6901C5.28 25.232 4.09803 24.0501 2.64 24.0501C1.18197 24.0501 -1.79131e-07 25.232 -1.15398e-07 26.6901C-5.16654e-08 28.1481 1.18197 29.3301 2.64 29.3301C4.09803 29.3301 5.28 28.1481 5.28 26.6901Z" fill="#EF5944"/>
<path d="M5.29024 50.6198C5.29222 50.0952 5.13851 49.5819 4.84853 49.1448C4.55855 48.7077 4.14532 48.3664 3.66127 48.1643C3.17723 47.9622 2.64412 47.9083 2.12941 48.0094C1.61471 48.1105 1.14159 48.3621 0.769978 48.7323C0.398367 49.1025 0.144953 49.5747 0.0418893 50.089C-0.0611746 50.6033 -0.00927678 51.1367 0.190998 51.6215C0.391273 52.1063 0.730946 52.5207 1.16695 52.8124C1.60295 53.104 2.11567 53.2598 2.64022 53.2598C3.34131 53.2598 4.01383 52.9819 4.51052 52.4871C5.0072 51.9922 5.2876 51.3208 5.29024 50.6198V50.6198Z" fill="#EF5944"/>
<path d="M5.29023 74.5502C5.29023 74.0261 5.13483 73.5137 4.84364 73.0779C4.55245 72.6421 4.13859 72.3025 3.65437 72.1019C3.17015 71.9014 2.63729 71.8489 2.12324 71.9512C1.60919 72.0534 1.13698 72.3058 0.76637 72.6764C0.39576 73.047 0.143401 73.5192 0.0411499 74.0332C-0.0611009 74.5473 -0.00860443 75.0801 0.191968 75.5643C0.39254 76.0486 0.732191 76.4624 1.16798 76.7535C1.60377 77.0447 2.11609 77.2002 2.64021 77.2002C2.98821 77.2002 3.33286 77.1317 3.65437 76.9985C3.97588 76.8654 4.26798 76.6701 4.51405 76.4241C4.76013 76.178 4.95534 75.8858 5.08851 75.5643C5.22169 75.2428 5.29023 74.8982 5.29023 74.5502V74.5502Z" fill="#EF5944"/>
<path d="M5.28 98.4899C5.28 97.0319 4.09803 95.8499 2.64 95.8499C1.18197 95.8499 -1.79131e-07 97.0319 -1.15398e-07 98.4899C-5.16654e-08 99.9479 1.18197 101.13 2.64 101.13C4.09803 101.13 5.28 99.9479 5.28 98.4899Z" fill="#EF5944"/>
<path d="M4.97708 121.408C4.42265 120.059 2.87999 119.416 1.53149 119.97C0.182988 120.525 -0.460681 122.067 0.0937552 123.416C0.648191 124.764 2.19079 125.408 3.53929 124.854C4.88779 124.299 5.53152 122.756 4.97708 121.408Z" fill="#EF5944"/>
<path d="M5.29023 146.35C5.29023 145.826 5.13483 145.313 4.84364 144.878C4.55245 144.442 4.13859 144.102 3.65437 143.902C3.17015 143.701 2.63729 143.649 2.12324 143.751C1.60919 143.853 1.13698 144.105 0.76637 144.476C0.39576 144.847 0.143401 145.319 0.0411499 145.833C-0.0611009 146.347 -0.00860443 146.88 0.191968 147.364C0.39254 147.848 0.732191 148.262 1.16798 148.553C1.60377 148.845 2.11609 149 2.64021 149C3.34303 149 4.01708 148.721 4.51405 148.224C5.01102 147.727 5.29023 147.053 5.29023 146.35V146.35Z" fill="#EF5944"/>
</g>
<defs>
<clipPath id="clip0_1384_30010">
<rect width="148.89" height="90.91" fill="white" transform="translate(108 149) rotate(-90)"/>
</clipPath>
<clipPath id="clip1_1384_30010">
<rect width="148.89" height="90.91" fill="white" transform="translate(0 149) rotate(-90)"/>
</clipPath>
</defs>
</svg>
