<svg width="616" height="220" viewBox="0 0 616 220" fill="none" xmlns="http://www.w3.org/2000/svg">
<path d="M615.24 218.233V219.948H538.078C538.078 234.694 520.93 246.697 499.668 246.697C478.405 246.697 461.258 234.694 461.258 219.948H384.439C384.439 234.694 367.292 246.697 346.029 246.697C324.767 246.697 307.62 234.694 307.62 219.948H230.801C230.801 234.694 213.653 246.697 192.391 246.697C171.129 246.697 153.981 234.694 153.981 219.948H76.8192C76.8192 234.694 59.6721 246.697 38.4096 246.697C17.1472 246.697 0 234.694 0 219.948H76.8192V218.233C76.8192 203.486 94.3093 191.484 115.572 191.484C136.834 191.484 153.981 203.486 153.981 218.233V219.948H230.801V218.233C230.801 203.486 247.948 191.484 269.21 191.484C290.473 191.484 307.62 203.486 307.62 218.233V219.948H384.439V218.233C384.439 203.486 401.586 191.484 422.849 191.484C444.111 191.484 461.258 203.486 461.258 218.233V219.948H538.078V218.233C538.078 203.486 555.568 191.484 576.83 191.484C598.093 191.484 615.24 203.486 615.24 218.233Z" fill="black" fill-opacity="0.05"/>
<path d="M615.24 163.362V165.077H538.078C538.078 179.823 520.93 191.826 499.668 191.826C478.405 191.826 461.258 179.823 461.258 165.077H384.439C384.439 179.823 367.292 191.826 346.029 191.826C324.767 191.826 307.62 179.823 307.62 165.077H230.801C230.801 179.823 213.653 191.826 192.391 191.826C171.129 191.826 153.981 179.823 153.981 165.077H76.8192C76.8192 179.823 59.6721 191.826 38.4096 191.826C17.1472 191.826 0 179.823 0 165.077H76.8192V163.362C76.8192 148.616 94.3093 136.613 115.572 136.613C136.834 136.613 153.981 148.616 153.981 163.362V165.077H230.801V163.362C230.801 148.616 247.948 136.613 269.21 136.613C290.473 136.613 307.62 148.616 307.62 163.362V165.077H384.439V163.362C384.439 148.616 401.586 136.613 422.849 136.613C444.111 136.613 461.258 148.616 461.258 163.362V165.077H538.078V163.362C538.078 148.616 555.568 136.613 576.83 136.613C598.093 136.613 615.24 148.616 615.24 163.362Z" fill="black" fill-opacity="0.05"/>
<path d="M615.24 108.491V110.206H538.078C538.078 124.953 520.93 136.956 499.668 136.956C478.405 136.956 461.258 124.953 461.258 110.206H384.439C384.439 124.953 367.292 136.956 346.029 136.956C324.767 136.956 307.62 124.953 307.62 110.206H230.801C230.801 124.953 213.653 136.956 192.391 136.956C171.129 136.956 153.981 124.953 153.981 110.206H76.8192C76.8192 124.953 59.6721 136.956 38.4096 136.956C17.1472 136.956 0 124.953 0 110.206H76.8192V108.491C76.8192 93.7447 94.3093 81.7418 115.572 81.7418C136.834 81.7418 153.981 93.7447 153.981 108.491V110.206H230.801V108.491C230.801 93.7447 247.948 81.7418 269.21 81.7418C290.473 81.7418 307.62 93.7447 307.62 108.491V110.206H384.439V108.491C384.439 93.7447 401.586 81.7418 422.849 81.7418C444.111 81.7418 461.258 93.7447 461.258 108.491V110.206H538.078V108.491C538.078 93.7447 555.568 81.7418 576.83 81.7418C598.093 81.7418 615.24 93.7447 615.24 108.491Z" fill="black" fill-opacity="0.05"/>
<path d="M615.24 53.6204V55.3351H538.078C538.078 70.0816 520.93 82.0847 499.668 82.0847C478.405 82.0847 461.258 70.0816 461.258 55.3351H384.439C384.439 70.0816 367.292 82.0847 346.029 82.0847C324.767 82.0847 307.62 70.0816 307.62 55.3351H230.801C230.801 70.0816 213.653 82.0847 192.391 82.0847C171.129 82.0847 153.981 70.0816 153.981 55.3351H76.8192C76.8192 70.0816 59.6721 82.0847 38.4096 82.0847C17.1472 82.0847 0 70.0816 0 55.3351H76.8192V53.6204C76.8192 38.8738 94.3093 26.8708 115.572 26.8708C136.834 26.8708 153.981 38.8738 153.981 53.6204V55.3351H230.801V53.6204C230.801 38.8738 247.948 26.8708 269.21 26.8708C290.473 26.8708 307.62 38.8738 307.62 53.6204V55.3351H384.439V53.6204C384.439 38.8738 401.586 26.8708 422.849 26.8708C444.111 26.8708 461.258 38.8738 461.258 53.6204V55.3351H538.078V53.6204C538.078 38.8738 555.568 26.8708 576.83 26.8708C598.093 26.8708 615.24 38.8738 615.24 53.6204Z" fill="black" fill-opacity="0.05"/>
<path d="M615.24 -1.25049V0.464224H538.078C538.078 15.2108 520.93 27.2138 499.668 27.2138C478.405 27.2138 461.258 15.2108 461.258 0.464224H384.439C384.439 15.2108 367.292 27.2138 346.029 27.2138C324.767 27.2138 307.62 15.2108 307.62 0.464224H230.801C230.801 15.2108 213.653 27.2138 192.391 27.2138C171.129 27.2138 153.981 15.2108 153.981 0.464224H76.8192C76.8192 15.2108 59.6721 27.2138 38.4096 27.2138C17.1472 27.2138 0 15.2108 0 0.464224H76.8192V-1.25049C76.8192 -15.997 94.3093 -28 115.572 -28C136.834 -28 153.981 -15.997 153.981 -1.25049V0.464224H230.801V-1.25049C230.801 -15.997 247.948 -28 269.21 -28C290.473 -28 307.62 -15.997 307.62 -1.25049V0.464224H384.439V-1.25049C384.439 -15.997 401.586 -28 422.849 -28C444.111 -28 461.258 -15.997 461.258 -1.25049V0.464224H538.078V-1.25049C538.078 -15.997 555.568 -28 576.83 -28C598.093 -28 615.24 -15.997 615.24 -1.25049Z" fill="black" fill-opacity="0.05"/>
</svg>
