<?xml version="1.0" encoding="utf-8"?>
<!-- Generator: Adobe Illustrator 26.5.0, SVG Export Plug-In . SVG Version: 6.00 Build 0)  -->
<svg version="1.1" id="Layer_1" xmlns="http://www.w3.org/2000/svg" xmlns:xlink="http://www.w3.org/1999/xlink" x="0px" y="0px"
	 width="121px" height="32px" viewBox="0 0 121 32" style="enable-background:new 0 0 121 32;" xml:space="preserve">
<style type="text/css">
	.st0{fill:#0073FF;stroke:#0073FF;stroke-miterlimit:10;}
	.st1{fill:#212121;}
</style>
<path class="st0" d="M5.4,10.6C5.4,9.1,6.6,8,8,8h11.8l-2,2c-0.3,0.3-0.3,0.9,0,1.2s0.9,0.3,1.2,0l3.4-3.4c0.2-0.1,0.3-0.4,0.3-0.7
	c0-0.2-0.1-0.5-0.3-0.6L19,3c-0.3-0.3-0.9-0.3-1.2,0c-0.3,0.3-0.3,0.9,0,1.2l2,2H8c-2.4,0-4.3,2-4.3,4.4v8.1c0,0.5,0.4,0.9,0.9,0.9
	s0.9-0.4,0.9-0.9L5.4,10.6L5.4,10.6z"/>
<path class="st0" d="M18.1,24H6.3l2-2c0.3-0.3,0.3-0.9,0-1.2c-0.3-0.3-0.9-0.3-1.2,0l-3.4,3.4c-0.2,0.1-0.3,0.4-0.3,0.7
	c0,0.2,0.1,0.5,0.3,0.6L7.1,29c0.3,0.3,0.9,0.3,1.2,0s0.3-0.9,0-1.2l-2-2h11.8c2.4,0,4.3-2,4.3-4.4v-8.1c0-0.5-0.4-0.9-0.9-0.9
	s-0.9,0.4-0.9,0.9v8.1C20.7,22.9,19.5,24,18.1,24z"/>
<g>
	<path class="st1" d="M29.6,21.6V10h4.7c0.9,0,1.6,0.1,2.1,0.4s1,0.6,1.3,1.1c0.3,0.4,0.4,1,0.4,1.5c0,0.5-0.1,0.9-0.3,1.2
		c-0.2,0.3-0.4,0.6-0.7,0.8s-0.7,0.4-1.1,0.5v0.1c0.4,0,0.9,0.1,1.2,0.4c0.4,0.2,0.7,0.6,0.9,1c0.2,0.4,0.4,0.9,0.4,1.5
		c0,0.6-0.2,1.2-0.5,1.7c-0.3,0.5-0.8,0.9-1.3,1.1c-0.6,0.3-1.3,0.4-2.2,0.4H29.6z M32.1,14.8h1.8c0.3,0,0.6-0.1,0.9-0.2
		c0.3-0.1,0.5-0.3,0.6-0.5c0.2-0.2,0.2-0.5,0.2-0.8c0-0.4-0.1-0.8-0.4-1C34.9,12.1,34.5,12,34,12h-1.9V14.8z M32.1,19.6h2
		c0.7,0,1.2-0.1,1.5-0.4s0.5-0.6,0.5-1.1c0-0.3-0.1-0.6-0.2-0.9s-0.4-0.4-0.7-0.6c-0.3-0.1-0.6-0.2-1-0.2h-2.1V19.6z"/>
	<path class="st1" d="M42.7,21.8c-0.6,0-1.1-0.1-1.5-0.3s-0.8-0.5-1-0.9s-0.4-0.9-0.4-1.4c0-0.5,0.1-0.9,0.3-1.2
		c0.2-0.3,0.4-0.6,0.7-0.8c0.3-0.2,0.7-0.4,1-0.5s0.8-0.2,1.2-0.2c0.5-0.1,0.9-0.1,1.2-0.2c0.3,0,0.5-0.1,0.7-0.2s0.2-0.2,0.2-0.4v0
		c0-0.4-0.1-0.6-0.3-0.8c-0.2-0.2-0.5-0.3-1-0.3c-0.4,0-0.8,0.1-1,0.3c-0.3,0.2-0.4,0.4-0.5,0.7l-2.2-0.2c0.1-0.5,0.3-1,0.7-1.4
		c0.3-0.4,0.8-0.7,1.3-0.9s1.1-0.3,1.8-0.3c0.5,0,1,0.1,1.4,0.2c0.4,0.1,0.8,0.3,1.2,0.5c0.3,0.2,0.6,0.5,0.8,0.9
		c0.2,0.4,0.3,0.8,0.3,1.3v5.9h-2.3v-1.2h-0.1c-0.1,0.3-0.3,0.5-0.6,0.7c-0.2,0.2-0.5,0.4-0.8,0.5C43.5,21.7,43.1,21.8,42.7,21.8z
		 M43.4,20.1c0.4,0,0.7-0.1,0.9-0.2c0.3-0.1,0.5-0.3,0.6-0.6c0.2-0.2,0.2-0.5,0.2-0.8v-0.9c-0.1,0-0.2,0.1-0.3,0.1s-0.3,0.1-0.4,0.1
		c-0.2,0-0.3,0.1-0.5,0.1c-0.2,0-0.3,0-0.4,0.1c-0.3,0-0.5,0.1-0.7,0.2c-0.2,0.1-0.4,0.2-0.5,0.4s-0.2,0.3-0.2,0.6
		c0,0.3,0.1,0.6,0.4,0.8C42.7,20,43,20.1,43.4,20.1z"/>
	<path class="st1" d="M56.7,15.4l-2.2,0.1c0-0.2-0.1-0.4-0.2-0.5s-0.3-0.3-0.5-0.4s-0.4-0.1-0.7-0.1c-0.4,0-0.7,0.1-0.9,0.2
		c-0.3,0.2-0.4,0.4-0.4,0.6c0,0.2,0.1,0.4,0.2,0.5c0.2,0.1,0.5,0.3,0.9,0.3l1.6,0.3c0.8,0.2,1.5,0.5,1.9,0.8
		c0.4,0.4,0.6,0.9,0.6,1.5c0,0.6-0.2,1.1-0.5,1.5c-0.3,0.4-0.8,0.8-1.4,1s-1.3,0.4-2,0.4c-1.2,0-2.1-0.2-2.8-0.7
		c-0.7-0.5-1.1-1.1-1.2-2l2.4-0.1c0.1,0.4,0.2,0.6,0.5,0.8S52.6,20,53,20c0.4,0,0.8-0.1,1-0.2c0.3-0.2,0.4-0.4,0.4-0.6
		c0-0.2-0.1-0.4-0.3-0.5c-0.2-0.1-0.5-0.3-0.8-0.3L51.8,18c-0.9-0.2-1.5-0.5-1.9-0.9c-0.4-0.4-0.6-1-0.6-1.6c0-0.6,0.2-1,0.5-1.4
		c0.3-0.4,0.7-0.7,1.3-0.9c0.6-0.2,1.2-0.3,2-0.3c1.1,0,2,0.2,2.6,0.7C56.2,13.9,56.6,14.6,56.7,15.4z"/>
	<path class="st1" d="M59.7,11.7c-0.4,0-0.7-0.1-0.9-0.4c-0.3-0.2-0.4-0.5-0.4-0.9c0-0.3,0.1-0.6,0.4-0.9c0.3-0.2,0.6-0.4,0.9-0.4
		c0.4,0,0.7,0.1,0.9,0.4c0.3,0.2,0.4,0.5,0.4,0.9c0,0.3-0.1,0.6-0.4,0.9C60.3,11.6,60,11.7,59.7,11.7z M58.4,21.6v-8.7h2.4v8.7H58.4
		z"/>
	<path class="st1" d="M66.7,21.8c-0.9,0-1.7-0.2-2.3-0.6c-0.6-0.4-1.1-0.9-1.5-1.6c-0.3-0.7-0.5-1.5-0.5-2.3c0-0.9,0.2-1.7,0.5-2.4
		s0.8-1.2,1.5-1.6c0.6-0.4,1.4-0.6,2.3-0.6c0.8,0,1.4,0.1,2,0.4c0.6,0.3,1,0.7,1.4,1.2c0.3,0.5,0.5,1.1,0.6,1.8h-2.3
		c-0.1-0.4-0.2-0.8-0.5-1.1c-0.3-0.3-0.6-0.4-1.1-0.4c-0.4,0-0.7,0.1-1,0.3c-0.3,0.2-0.5,0.5-0.7,0.9c-0.2,0.4-0.2,0.9-0.2,1.4
		c0,0.6,0.1,1,0.2,1.4c0.2,0.4,0.4,0.7,0.7,0.9c0.3,0.2,0.6,0.3,1,0.3c0.3,0,0.5-0.1,0.7-0.2c0.2-0.1,0.4-0.3,0.6-0.5
		c0.1-0.2,0.2-0.5,0.3-0.8h2.3c0,0.7-0.2,1.3-0.5,1.8c-0.3,0.5-0.8,0.9-1.3,1.2C68.2,21.6,67.5,21.8,66.7,21.8z"/>
	<path class="st1" d="M78.6,13.3c0-0.5-0.2-0.8-0.6-1.1c-0.3-0.3-0.8-0.4-1.4-0.4c-0.4,0-0.7,0.1-1,0.2c-0.3,0.1-0.5,0.3-0.6,0.5
		c-0.1,0.2-0.2,0.4-0.2,0.7c0,0.2,0,0.4,0.1,0.5s0.2,0.3,0.4,0.4c0.2,0.1,0.4,0.2,0.6,0.3c0.2,0.1,0.5,0.2,0.7,0.2l1,0.2
		c0.5,0.1,1,0.3,1.4,0.5s0.8,0.4,1.1,0.7s0.6,0.6,0.7,1c0.2,0.4,0.3,0.8,0.3,1.3c0,0.7-0.2,1.3-0.5,1.8c-0.4,0.5-0.9,0.9-1.5,1.2
		c-0.7,0.3-1.5,0.4-2.4,0.4c-0.9,0-1.8-0.1-2.5-0.4c-0.7-0.3-1.2-0.7-1.6-1.3c-0.4-0.6-0.6-1.3-0.6-2.1h2.4c0,0.4,0.1,0.7,0.3,1
		c0.2,0.3,0.5,0.5,0.8,0.6s0.7,0.2,1.1,0.2c0.4,0,0.8-0.1,1.1-0.2c0.3-0.1,0.5-0.3,0.7-0.5c0.2-0.2,0.3-0.5,0.3-0.7
		c0-0.3-0.1-0.5-0.2-0.7c-0.2-0.2-0.4-0.3-0.7-0.5c-0.3-0.1-0.7-0.2-1.1-0.3l-1.3-0.3c-1-0.2-1.8-0.6-2.3-1.1s-0.9-1.2-0.8-2.1
		c0-0.7,0.2-1.3,0.6-1.8s0.9-0.9,1.6-1.2c0.7-0.3,1.4-0.4,2.3-0.4c0.9,0,1.6,0.1,2.3,0.4c0.6,0.3,1.1,0.7,1.5,1.2
		c0.4,0.5,0.5,1.1,0.6,1.8H78.6z"/>
	<path class="st1" d="M84.4,21.6L82,12.9h2.4l1.4,5.9h0.1l1.4-5.9h2.4l1.4,5.8h0.1l1.3-5.8H95l-2.4,8.7h-2.6l-1.5-5.5h-0.1L87,21.6
		H84.4z"/>
	<path class="st1" d="M98.8,21.8c-0.6,0-1.1-0.1-1.5-0.3s-0.8-0.5-1-0.9s-0.4-0.9-0.4-1.4c0-0.5,0.1-0.9,0.3-1.2
		c0.2-0.3,0.4-0.6,0.7-0.8c0.3-0.2,0.7-0.4,1-0.5c0.4-0.1,0.8-0.2,1.2-0.2c0.5-0.1,0.9-0.1,1.2-0.2c0.3,0,0.5-0.1,0.7-0.2
		c0.1-0.1,0.2-0.2,0.2-0.4v0c0-0.4-0.1-0.6-0.3-0.8c-0.2-0.2-0.5-0.3-1-0.3c-0.4,0-0.8,0.1-1,0.3c-0.3,0.2-0.4,0.4-0.5,0.7l-2.2-0.2
		c0.1-0.5,0.3-1,0.7-1.4c0.3-0.4,0.8-0.7,1.3-0.9c0.5-0.2,1.1-0.3,1.8-0.3c0.5,0,0.9,0.1,1.4,0.2c0.4,0.1,0.8,0.3,1.2,0.5
		c0.3,0.2,0.6,0.5,0.8,0.9c0.2,0.4,0.3,0.8,0.3,1.3v5.9h-2.3v-1.2h-0.1c-0.1,0.3-0.3,0.5-0.6,0.7c-0.2,0.2-0.5,0.4-0.8,0.5
		C99.6,21.7,99.2,21.8,98.8,21.8z M99.5,20.1c0.4,0,0.7-0.1,0.9-0.2s0.5-0.3,0.6-0.6c0.2-0.2,0.2-0.5,0.2-0.8v-0.9
		c-0.1,0-0.2,0.1-0.3,0.1s-0.3,0.1-0.4,0.1s-0.3,0.1-0.5,0.1c-0.2,0-0.3,0-0.4,0.1c-0.3,0-0.5,0.1-0.7,0.2c-0.2,0.1-0.4,0.2-0.5,0.4
		c-0.1,0.2-0.2,0.3-0.2,0.6c0,0.3,0.1,0.6,0.4,0.8C98.8,20,99.1,20.1,99.5,20.1z"/>
	<path class="st1" d="M105.6,24.9v-12h2.4v1.5h0.1c0.1-0.2,0.3-0.5,0.5-0.7c0.2-0.2,0.5-0.4,0.8-0.6c0.3-0.2,0.7-0.2,1.2-0.2
		c0.6,0,1.2,0.2,1.8,0.5c0.5,0.3,1,0.8,1.3,1.5s0.5,1.5,0.5,2.5c0,1-0.2,1.8-0.5,2.5c-0.3,0.7-0.7,1.2-1.3,1.5
		c-0.5,0.3-1.1,0.5-1.8,0.5c-0.5,0-0.9-0.1-1.2-0.2c-0.3-0.2-0.6-0.4-0.8-0.6c-0.2-0.2-0.4-0.5-0.5-0.7H108v4.7H105.6z M107.9,17.2
		c0,0.5,0.1,1,0.2,1.4c0.1,0.4,0.4,0.7,0.6,0.9c0.3,0.2,0.6,0.3,1,0.3c0.4,0,0.7-0.1,1-0.3c0.3-0.2,0.5-0.5,0.6-0.9
		c0.1-0.4,0.2-0.8,0.2-1.3c0-0.5-0.1-0.9-0.2-1.3c-0.1-0.4-0.3-0.7-0.6-0.9c-0.3-0.2-0.6-0.3-1-0.3c-0.4,0-0.7,0.1-1,0.3
		c-0.3,0.2-0.5,0.5-0.6,0.9C108,16.3,107.9,16.7,107.9,17.2z"/>
</g>
</svg>
