<?xml version="1.0" encoding="utf-8"?>
<!-- Generator: Adobe Illustrator 26.3.1, SVG Export Plug-In . SVG Version: 6.00 Build 0)  -->
<svg version="1.1" id="Layer_1" xmlns="http://www.w3.org/2000/svg" xmlns:xlink="http://www.w3.org/1999/xlink" x="0px" y="0px"
	 width="121px" height="32px" viewBox="0 0 121 32" style="enable-background:new 0 0 121 32;" xml:space="preserve">
<style type="text/css">
	.st0{fill:#FFFFFF;}
	.st1{fill:#0073FF;stroke:#0073FF;stroke-miterlimit:10;}
</style>
<path class="st0" d="M29.6,21.3V8.4h4.5c1.6,0,2.7,0.3,3.5,0.9c0.8,0.6,1.2,1.5,1.2,2.6c0,0.6-0.2,1.2-0.5,1.7
	c-0.3,0.5-0.8,0.8-1.3,1c0.7,0.2,1.2,0.5,1.5,1c0.4,0.5,0.6,1.1,0.6,1.8c0,1.2-0.4,2.2-1.2,2.8c-0.8,0.6-1.9,1-3.4,1H29.6z
	 M32.2,15.7v3.5h2.3c0.6,0,1.1-0.1,1.5-0.4c0.4-0.3,0.5-0.7,0.5-1.2c0-1.2-0.6-1.8-1.8-1.8H32.2z M32.2,13.8h2c1.3,0,2-0.6,2-1.6
	c0-0.6-0.2-1-0.5-1.2c-0.3-0.3-0.9-0.4-1.6-0.4h-1.8V13.8z M46.5,21.3c-0.1-0.2-0.2-0.5-0.3-0.9c-0.6,0.7-1.4,1-2.4,1
	c-0.9,0-1.7-0.3-2.3-0.8c-0.6-0.5-0.9-1.2-0.9-2c0-1,0.4-1.8,1.1-2.3c0.8-0.5,1.8-0.8,3.2-0.8h1.2v-0.5c0-0.4-0.1-0.8-0.3-1.1
	c-0.2-0.3-0.6-0.4-1.1-0.4c-0.4,0-0.8,0.1-1,0.3c-0.2,0.2-0.4,0.5-0.4,0.8h-2.5c0-0.6,0.2-1.1,0.5-1.5c0.3-0.5,0.8-0.8,1.4-1.1
	c0.6-0.3,1.3-0.4,2.1-0.4c1.2,0,2.1,0.3,2.8,0.9c0.7,0.6,1,1.4,1,2.5v4.1c0,0.9,0.1,1.6,0.4,2v0.1H46.5z M44.4,19.5
	c0.4,0,0.7-0.1,1-0.2c0.3-0.2,0.6-0.4,0.7-0.7v-1.6h-0.9c-1.3,0-1.9,0.4-2,1.3l0,0.1c0,0.3,0.1,0.6,0.3,0.8
	C43.7,19.4,44,19.5,44.4,19.5z M55.9,18.6c0-0.3-0.2-0.6-0.5-0.7c-0.3-0.2-0.8-0.3-1.5-0.5c-2.3-0.5-3.4-1.4-3.4-2.9
	c0-0.8,0.3-1.5,1-2.1c0.7-0.6,1.6-0.9,2.8-0.9c1.2,0,2.2,0.3,2.9,0.9c0.7,0.6,1.1,1.3,1.1,2.2h-2.5c0-0.4-0.1-0.7-0.4-0.9
	c-0.2-0.2-0.6-0.4-1.1-0.4c-0.4,0-0.8,0.1-1,0.3c-0.2,0.2-0.4,0.4-0.4,0.7c0,0.3,0.1,0.5,0.4,0.7c0.3,0.2,0.7,0.3,1.4,0.4
	c0.6,0.1,1.2,0.3,1.6,0.4c1.3,0.5,2,1.3,2,2.6c0,0.9-0.4,1.6-1.1,2.1c-0.7,0.5-1.7,0.8-2.9,0.8c-0.8,0-1.5-0.1-2.1-0.4
	c-0.6-0.3-1.1-0.7-1.5-1.2c-0.4-0.5-0.5-1-0.5-1.6h2.4c0,0.5,0.2,0.8,0.5,1c0.3,0.2,0.7,0.4,1.2,0.4c0.5,0,0.9-0.1,1.1-0.3
	C55.8,19.2,55.9,18.9,55.9,18.6z M62.8,21.3h-2.6v-9.5h2.6V21.3z M60.1,9.3c0-0.4,0.1-0.7,0.4-0.9C60.7,8.1,61,8,61.5,8
	c0.4,0,0.8,0.1,1,0.4c0.3,0.2,0.4,0.6,0.4,0.9c0,0.4-0.1,0.7-0.4,1c-0.3,0.2-0.6,0.4-1,0.4c-0.4,0-0.8-0.1-1-0.4
	C60.2,10,60.1,9.7,60.1,9.3z M68.9,19.4c0.5,0,0.9-0.1,1.1-0.4c0.3-0.3,0.4-0.6,0.5-1h2.4c0,0.6-0.2,1.2-0.5,1.8
	c-0.3,0.5-0.8,1-1.4,1.2c-0.6,0.3-1.3,0.4-2,0.4c-1.4,0-2.4-0.4-3.2-1.3c-0.8-0.9-1.2-2.1-1.2-3.6v-0.2c0-1.5,0.4-2.6,1.2-3.5
	s1.9-1.3,3.2-1.3c1.2,0,2.1,0.3,2.9,1c0.7,0.7,1.1,1.6,1.1,2.7h-2.4c0-0.5-0.2-0.9-0.5-1.2c-0.3-0.3-0.7-0.5-1.2-0.5
	c-0.6,0-1,0.2-1.3,0.7c-0.3,0.4-0.4,1.1-0.4,2.1v0.3c0,1,0.1,1.7,0.4,2.1C67.8,19.2,68.3,19.4,68.9,19.4z M79.6,18.6
	c0-0.3-0.2-0.6-0.5-0.7c-0.3-0.2-0.8-0.3-1.5-0.5c-2.3-0.5-3.4-1.4-3.4-2.9c0-0.8,0.3-1.5,1-2.1c0.7-0.6,1.6-0.9,2.8-0.9
	c1.2,0,2.2,0.3,2.9,0.9c0.7,0.6,1.1,1.3,1.1,2.2h-2.5c0-0.4-0.1-0.7-0.4-0.9c-0.2-0.2-0.6-0.4-1.1-0.4c-0.4,0-0.8,0.1-1,0.3
	c-0.2,0.2-0.4,0.4-0.4,0.7c0,0.3,0.1,0.5,0.4,0.7c0.3,0.2,0.7,0.3,1.4,0.4c0.6,0.1,1.2,0.3,1.6,0.4c1.3,0.5,2,1.3,2,2.6
	c0,0.9-0.4,1.6-1.1,2.1c-0.7,0.5-1.7,0.8-2.9,0.8c-0.8,0-1.5-0.1-2.1-0.4c-0.6-0.3-1.1-0.7-1.5-1.2c-0.4-0.5-0.5-1-0.5-1.6h2.4
	c0,0.5,0.2,0.8,0.5,1c0.3,0.2,0.7,0.4,1.2,0.4c0.5,0,0.9-0.1,1.1-0.3C79.4,19.2,79.6,18.9,79.6,18.6z M92,17.8l1.2-6.1h2.5l-2.4,9.5
	h-2.1l-1.8-6l-1.8,6h-2.1L83,11.7h2.5l1.2,6.1l1.7-6.1h1.8L92,17.8z M102.6,21.3c-0.1-0.2-0.2-0.5-0.3-0.9c-0.6,0.7-1.4,1-2.4,1
	c-0.9,0-1.7-0.3-2.3-0.8c-0.6-0.5-0.9-1.2-0.9-2c0-1,0.4-1.8,1.1-2.3c0.8-0.5,1.8-0.8,3.2-0.8h1.2v-0.5c0-0.4-0.1-0.8-0.3-1.1
	c-0.2-0.3-0.6-0.4-1.1-0.4c-0.4,0-0.8,0.1-1,0.3c-0.2,0.2-0.4,0.5-0.4,0.8h-2.5c0-0.6,0.2-1.1,0.5-1.5c0.3-0.5,0.8-0.8,1.4-1.1
	c0.6-0.3,1.3-0.4,2.1-0.4c1.2,0,2.1,0.3,2.8,0.9c0.7,0.6,1,1.4,1,2.5v4.1c0,0.9,0.1,1.6,0.4,2v0.1H102.6z M100.5,19.5
	c0.4,0,0.7-0.1,1-0.2c0.3-0.2,0.6-0.4,0.7-0.7v-1.6h-0.9c-1.3,0-1.9,0.4-2,1.3l0,0.1c0,0.3,0.1,0.6,0.3,0.8
	C99.8,19.4,100.1,19.5,100.5,19.5z M115.4,16.6c0,1.5-0.3,2.6-1,3.5c-0.7,0.9-1.6,1.3-2.7,1.3c-1,0-1.7-0.3-2.3-1v4.5h-2.5V11.7h2.4
	l0.1,0.9c0.6-0.7,1.4-1.1,2.4-1.1c1.2,0,2.1,0.4,2.7,1.3c0.7,0.9,1,2.1,1,3.6V16.6z M112.8,16.4c0-0.9-0.2-1.6-0.5-2
	c-0.3-0.5-0.8-0.7-1.4-0.7c-0.8,0-1.3,0.3-1.6,0.9v3.9c0.3,0.6,0.9,0.9,1.7,0.9C112.2,19.4,112.8,18.4,112.8,16.4z"/>
<path class="st1" d="M5.4,10.6C5.4,9.1,6.6,8,8,8h11.8l-2,2c-0.3,0.3-0.3,0.9,0,1.2c0.3,0.3,0.9,0.3,1.2,0l3.4-3.4
	c0.2-0.1,0.3-0.4,0.3-0.7c0-0.2-0.1-0.5-0.3-0.6L19,3c-0.3-0.3-0.9-0.3-1.2,0c-0.3,0.3-0.3,0.9,0,1.2l2,2H8c-2.4,0-4.3,2-4.3,4.4
	v8.1c0,0.5,0.4,0.9,0.9,0.9c0.5,0,0.9-0.4,0.9-0.9V10.6z"/>
<path class="st1" d="M18.1,24H6.3l2-2c0.3-0.3,0.3-0.9,0-1.2c-0.3-0.3-0.9-0.3-1.2,0l-3.4,3.4c-0.2,0.1-0.3,0.4-0.3,0.7
	c0,0.2,0.1,0.5,0.3,0.6L7.1,29c0.3,0.3,0.9,0.3,1.2,0c0.3-0.3,0.3-0.9,0-1.2l-2-2h11.8c2.4,0,4.3-2,4.3-4.4v-8.1
	c0-0.5-0.4-0.9-0.9-0.9c-0.5,0-0.9,0.4-0.9,0.9v8.1C20.7,22.9,19.5,24,18.1,24z"/>
</svg>
